<?xml version="1.0" standalone="no"?>
<!DOCTYPE svg PUBLIC "-//W3C//DTD SVG 20010904//EN"
 "http://www.w3.org/TR/2001/REC-SVG-20010904/DTD/svg10.dtd">
<svg version="1.0" xmlns="http://www.w3.org/2000/svg"
 width="270.000000pt" height="267.000000pt" viewBox="0 0 270.000000 267.000000"
 preserveAspectRatio="xMidYMid meet">

<g transform="translate(0.000000,267.000000) scale(0.100000,-0.100000)"
fill="#000000" stroke="none">
<path d="M1085 2650 c-179 -36 -365 -115 -515 -221 -102 -72 -263 -236 -332
-340 -252 -377 -299 -854 -124 -1267 176 -417 557 -719 1006 -798 130 -22 409
-15 525 14 523 132 898 519 1013 1047 24 114 24 398 -2 514 -60 275 -178 494
-371 686 -194 193 -435 320 -704 370 -117 21 -377 19 -496 -5z m131 -163 c-2
-29 1 -57 5 -63 6 -7 1 -18 -11 -29 -24 -22 -29 -55 -5 -35 22 18 35 3 35 -39
0 -70 -9 -97 -33 -96 -12 1 -22 6 -22 11 0 5 6 8 13 8 8 -1 12 14 12 48 0 44
-2 49 -15 38 -11 -9 -12 -16 -5 -25 11 -14 3 -45 -11 -45 -5 0 -9 7 -9 16 0 8
-5 12 -11 9 -5 -4 -9 -18 -7 -30 2 -13 -1 -24 -7 -25 -14 -1 -19 39 -6 53 5 7
6 18 2 26 -6 9 -16 5 -39 -18 -17 -17 -38 -31 -46 -31 -24 0 -19 14 12 32 15
9 49 37 77 61 l50 44 1 74 c2 87 1 82 14 74 5 -3 8 -29 6 -58z m278 10 c8 -12
7 -20 -2 -29 -14 -14 -18 -11 -28 26 -5 21 -4 28 6 24 8 -2 18 -12 24 -21z
m136 6 c0 -5 -7 -33 -15 -63 -19 -72 -19 -80 5 -80 30 0 24 -18 -9 -25 -27 -6
-32 -14 -53 -78 -13 -39 -28 -72 -35 -74 -8 -3 -8 7 1 39 28 93 28 98 6 98
-12 0 -30 -5 -42 -11 -30 -16 -34 -2 -10 31 12 16 22 40 22 53 0 14 7 30 15
37 8 7 15 23 15 36 0 28 15 32 28 7 12 -23 5 -43 -15 -43 -11 0 -14 -7 -10
-27 3 -16 -1 -32 -10 -41 -19 -20 -11 -25 19 -12 24 11 56 88 50 118 -2 8 2
20 9 28 12 15 29 19 29 7z m-520 -18 c-14 -16 -6 -35 16 -35 8 0 14 -2 14 -4
0 -2 3 -11 6 -20 11 -29 -33 -18 -60 15 -35 41 -34 59 5 59 26 0 30 -2 19 -15z
m70 -5 c0 -11 -4 -20 -10 -20 -5 0 -10 9 -10 20 0 11 5 20 10 20 6 0 10 -9 10
-20z m310 -39 c0 -5 -6 -14 -14 -20 -8 -6 -16 -21 -19 -33 -5 -16 -3 -18 6 -9
27 27 26 8 -1 -24 -17 -19 -34 -50 -38 -70 -9 -50 -29 -59 -21 -10 5 29 3 35
-5 27 -33 -33 -30 2 5 51 19 27 19 29 1 42 -18 13 -18 14 1 20 11 4 31 13 45
20 29 17 40 18 40 6z m-400 -39 c0 -28 11 -34 32 -15 24 22 23 8 -3 -29 -12
-16 -25 -26 -29 -21 -12 13 -20 83 -9 83 5 0 9 -8 9 -18z m-210 -80 c0 -9 10
-35 21 -60 16 -32 19 -46 10 -55 -8 -8 -15 -1 -26 26 -8 20 -15 42 -16 49 0 7
-4 3 -9 -9 -16 -39 -31 -27 -24 20 9 66 12 71 29 57 8 -7 15 -19 15 -28z
m1085 -58 c23 -17 12 -31 -34 -44 -20 -5 -58 -24 -84 -41 -42 -27 -51 -30 -85
-22 -50 12 -51 39 -1 35 41 -4 71 20 51 40 -23 23 -14 40 16 34 24 -6 33 0 67
41 l40 47 6 -38 c4 -22 14 -45 24 -52z m-1137 -27 c26 -61 28 -74 7 -57 -8 7
-15 18 -15 25 0 7 -11 12 -25 11 -14 0 -25 -1 -25 -2 0 0 7 -22 16 -48 17 -50
15 -62 -11 -53 -10 4 -15 19 -15 44 0 34 -1 35 -14 17 -14 -18 -15 -18 -22 -1
-3 10 -2 23 4 29 6 6 8 16 6 23 -7 18 16 31 26 15 11 -18 30 -3 30 26 0 38 13
28 38 -29z m-288 -78 c7 -11 16 -16 26 -12 16 6 15 -4 -3 -54 -3 -7 0 -13 6
-13 6 0 11 5 11 10 0 25 30 6 40 -25 9 -27 17 -35 36 -35 17 0 24 -6 24 -19 0
-11 -4 -23 -10 -26 -5 -3 -10 1 -10 9 0 19 -21 21 -38 4 -9 -9 -7 -19 9 -44
12 -20 16 -35 9 -39 -5 -3 -15 5 -22 19 -6 14 -17 26 -25 26 -7 0 -19 15 -27
33 -8 17 -15 25 -15 15 -1 -9 -6 -18 -12 -20 -13 -4 -1 -52 28 -116 17 -35 13
-48 -11 -39 -16 6 -53 118 -65 198 -10 61 -19 72 -27 31 -7 -33 -30 -43 -40
-17 -4 8 1 26 10 40 21 31 20 35 -3 35 -11 0 -22 4 -25 9 -8 13 21 34 38 28 8
-3 17 1 20 9 9 24 22 16 34 -23 l11 -38 -4 42 c-4 35 -3 41 10 37 9 -4 20 -15
25 -25z m1019 -20 c293 -75 529 -311 605 -605 26 -101 25 -104 -38 -104 l-55
0 -11 58 c-19 94 -99 247 -170 325 -101 109 -235 190 -373 222 -80 19 -254 19
-334 0 -120 -28 -239 -93 -337 -185 l-49 -45 33 -5 c30 -5 37 -15 173 -285
166 -327 156 -310 169 -297 7 7 -36 102 -131 288 -77 152 -141 281 -141 286 0
5 10 8 23 6 18 -2 46 -50 155 -267 88 -174 137 -260 143 -254 7 7 -32 95 -115
262 -69 138 -126 253 -126 256 0 3 8 5 18 5 12 0 49 -63 135 -236 89 -176 122
-233 130 -225 9 9 -16 66 -96 226 -59 118 -107 220 -107 226 0 6 16 9 37 7
l38 -3 102 -200 c56 -110 103 -209 103 -220 0 -44 -188 -303 -211 -290 -4 3
-86 159 -181 346 l-172 341 -20 -24 c-30 -37 -94 -177 -113 -248 -23 -88 -23
-263 1 -350 58 -217 199 -386 401 -481 433 -204 951 72 1023 544 l9 57 -208 0
-207 0 -12 -37 c-21 -64 -80 -171 -122 -218 l-40 -45 -204 0 c-112 0 -204 3
-204 8 0 4 19 21 41 37 60 44 145 140 190 216 25 41 62 134 98 245 63 194 89
254 129 297 l26 27 163 0 c90 0 163 -2 163 -4 0 -2 -21 -34 -46 -72 -53 -77
-95 -165 -130 -268 -13 -38 -24 -71 -24 -73 0 -2 113 -3 251 -3 l252 0 -6
-107 c-10 -212 -93 -392 -251 -548 -165 -163 -364 -245 -596 -245 -245 0 -512
132 -659 326 -119 157 -173 317 -174 514 -1 241 74 423 247 596 105 105 192
160 324 204 159 53 322 60 481 19z m351 2 c13 -25 13 -71 0 -71 -14 0 -30 35
-30 64 0 31 15 34 30 7z m232 -132 c-31 -25 -28 -29 24 -29 25 0 43 4 39 9
-10 17 27 30 47 18 14 -9 23 -9 39 1 19 12 20 11 17 -10 -3 -20 -8 -23 -38
-20 -42 3 -80 -5 -80 -17 0 -5 27 -8 61 -6 42 2 59 0 56 -8 -2 -7 -20 -13 -40
-15 -20 -2 -37 -8 -37 -14 0 -6 -9 -8 -22 -3 -51 15 -93 11 -128 -12 -40 -27
-60 -29 -60 -8 0 9 6 15 13 13 18 -3 57 12 57 23 0 5 -20 18 -45 29 -46 20
-51 26 -36 48 7 11 9 11 14 -2 8 -21 74 -53 122 -60 35 -5 34 -3 -12 11 -45
14 -53 19 -53 41 0 19 3 22 13 13 11 -8 18 -6 32 9 10 11 22 17 28 13 6 -4 1
-13 -11 -24z m58 18 c0 -14 -20 -37 -32 -37 -12 0 -10 24 4 38 16 16 28 15 28
-1z m-15 -117 c3 -5 2 -10 -4 -10 -5 0 -13 5 -16 10 -3 6 -2 10 4 10 5 0 13
-4 16 -10z m-1855 -580 c30 -16 56 -120 30 -120 -5 0 -10 12 -10 28 0 35 -26
72 -50 72 -27 0 -50 -27 -50 -61 0 -22 5 -29 20 -29 14 0 20 7 20 22 0 16 3
19 11 11 6 -6 9 -21 7 -34 -2 -18 -10 -25 -32 -27 -34 -4 -46 10 -46 56 0 73
46 111 100 82z m2050 -20 c20 -18 46 -30 62 -30 18 0 28 -5 28 -15 0 -10 -10
-15 -30 -15 -16 0 -45 -7 -64 -16 -29 -14 -34 -22 -33 -48 2 -29 5 -31 55 -39
36 -6 52 -13 52 -24 0 -12 -8 -14 -37 -9 -21 4 -46 9 -56 12 -13 4 -20 -1 -24
-15 -3 -12 -10 -21 -15 -21 -6 0 -8 10 -5 23 3 12 9 45 13 74 5 45 10 53 35
63 27 12 40 30 21 30 -12 0 -52 39 -52 50 0 16 13 11 50 -20z m-2000 -150 c0
-5 -12 -12 -27 -16 -62 -13 -78 -21 -81 -41 -5 -34 18 -44 70 -28 38 11 47 11
51 1 4 -9 -8 -17 -32 -25 -81 -24 -111 -8 -111 57 0 31 13 47 45 55 36 9 85 7
85 -3z m1998 -105 c32 -10 52 -21 52 -30 0 -8 -1 -15 -2 -15 -22 1 -123 40
-126 49 -5 15 15 14 76 -4z m-79 -67 c-8 -14 -8 -23 0 -31 8 -8 19 -3 41 18
25 24 34 27 48 19 22 -14 27 -64 8 -89 -19 -27 -30 -14 -15 19 19 40 -3 57
-34 28 -28 -26 -53 -28 -65 -5 -11 19 5 76 19 67 5 -3 4 -14 -2 -26z m-1882
-4 c8 -20 -87 -118 -101 -104 -6 6 -4 16 6 27 20 23 7 63 -21 63 -10 0 -21 7
-25 15 -4 12 7 15 65 15 54 0 71 -3 76 -16z m19 -140 c-14 -25 -26 -49 -26
-51 0 -3 16 5 36 17 63 37 57 7 -7 -33 -71 -45 -86 -33 -45 37 33 57 33 60 -6
36 -36 -22 -58 -26 -58 -10 0 15 114 70 124 60 5 -5 -3 -29 -18 -56z m882 50
c18 -12 22 -25 22 -69 0 -59 -16 -85 -54 -85 -13 0 -29 7 -36 15 -16 19 -5 34
12 17 17 -17 45 -15 52 4 10 27 7 31 -19 26 -35 -6 -55 14 -55 55 0 26 5 36
23 43 30 12 30 12 55 -6z m253 -3 c22 -18 23 -22 10 -42 -10 -17 -10 -24 -2
-27 15 -5 14 -55 -1 -70 -7 -7 -24 -12 -38 -12 -14 0 -31 5 -38 12 -16 16 -15
65 1 71 10 4 10 7 0 18 -17 18 -16 34 3 53 20 21 37 20 65 -3z m736 -1 c3 -11
10 -17 15 -14 13 8 58 -4 58 -16 0 -5 -17 -10 -37 -12 -45 -4 -52 -20 -18 -38
15 -8 22 -17 16 -23 -8 -8 -65 16 -105 45 -17 14 -17 16 -2 46 20 38 64 45 73
12z m-1117 -70 c0 -47 -4 -80 -10 -80 -6 0 -10 27 -10 61 0 56 -2 60 -20 54
-11 -3 -20 -2 -20 3 0 10 39 41 53 41 4 1 7 -35 7 -79z m270 70 c0 -5 -13 -10
-29 -10 -16 0 -31 -6 -35 -15 -4 -10 1 -15 16 -15 49 0 76 -61 42 -94 -28 -28
-94 -11 -94 25 0 14 16 11 30 -6 18 -21 48 -19 55 5 10 31 -13 52 -47 45 -30
-7 -35 4 -22 53 5 18 13 22 45 22 22 0 39 -4 39 -10z m760 -76 c0 -3 -5 -15
-11 -26 -17 -33 7 -50 29 -20 23 29 36 17 16 -13 -14 -22 -14 -24 5 -35 18 -9
23 -7 33 15 10 23 28 34 28 18 0 -11 -39 -73 -45 -73 -8 0 -105 71 -105 77 0
11 35 63 42 63 4 0 8 -3 8 -6z m-1683 -66 c13 -12 23 -28 23 -36 0 -10 -8 -6
-25 12 -29 31 -48 33 -75 6 -23 -23 -24 -33 -10 -60 13 -25 44 -15 37 11 -6
23 6 25 23 4 10 -13 10 -19 -5 -35 -23 -25 -33 -25 -62 2 -29 27 -29 65 -1 95
27 29 65 29 95 1z m1661 -64 c43 -70 38 -91 -15 -68 -21 9 -50 20 -65 26 -16
5 -28 13 -28 17 0 19 16 18 61 -5 27 -13 49 -22 49 -18 0 3 -13 25 -30 48 -26
38 -29 57 -11 56 3 0 21 -25 39 -56z m-1554 -65 c-2 -4 -31 -11 -64 -15 -33
-4 -60 -9 -60 -12 0 -3 10 -16 22 -29 12 -13 18 -26 14 -30 -5 -5 -23 10 -42
31 -38 44 -33 55 26 57 19 0 43 4 53 8 17 6 17 8 -2 25 -11 10 -18 23 -15 28
4 5 21 -5 40 -23 18 -18 31 -36 28 -40z m1523 -76 c-10 -9 -108 88 -100 100 3
5 28 -14 56 -42 28 -27 48 -54 44 -58z m-1507 32 l-21 -22 25 -16 c24 -16 26
-16 40 4 8 12 19 18 25 15 6 -4 -6 -28 -32 -61 -26 -34 -45 -51 -51 -45 -6 6
-3 17 9 30 18 20 18 21 -4 43 l-23 22 -15 -22 c-14 -22 -43 -32 -43 -16 0 14
93 102 102 96 5 -3 0 -15 -12 -28z m1429 -12 c51 -57 43 -72 -25 -49 -26 9
-49 16 -51 16 -2 0 8 -16 23 -35 27 -35 27 -58 0 -36 -24 20 -69 91 -62 98 3
4 29 0 56 -9 47 -15 49 -15 40 1 -5 10 -16 23 -24 31 -9 7 -16 16 -16 21 0 20
20 7 59 -38z m-115 -71 c33 -48 33 -77 1 -98 -34 -22 -55 -12 -88 41 -30 51
-31 55 -17 55 5 0 23 -20 40 -46 32 -46 46 -50 63 -22 7 11 3 25 -17 54 -14
21 -26 42 -26 46 0 19 19 5 44 -30z m-1166 12 c45 -31 11 -124 -45 -124 -73 0
-85 89 -18 128 27 15 37 15 63 -4z m62 -84 c-28 -54 -27 -82 3 -78 19 3 46 39
60 82 2 5 8 7 15 5 8 -3 4 -20 -13 -56 -21 -47 -28 -53 -54 -53 -29 0 -61 22
-61 41 0 21 51 109 60 104 6 -4 2 -22 -10 -45z m876 -51 c18 -49 19 -50 51
-44 18 3 33 3 33 0 0 -7 -71 -38 -75 -33 -9 8 -45 101 -45 114 0 31 19 11 36
-37z m-52 -36 c26 -36 33 -53 23 -53 -8 0 -20 6 -26 14 -16 19 -49 9 -53 -17
-2 -11 -8 -22 -14 -24 -15 -5 -6 129 10 139 12 8 10 10 60 -59z m-599 5 l7
-52 25 42 c35 59 58 57 49 -4 -3 -26 -6 -55 -6 -65 0 -11 -7 -19 -15 -19 -14
0 -14 31 1 78 6 21 -3 13 -30 -28 -14 -22 -31 -40 -36 -40 -6 0 -10 24 -11 53
l-1 52 -20 -47 c-11 -27 -24 -48 -29 -48 -13 0 -12 6 12 71 27 74 45 76 54 7z
m475 34 c0 -4 -13 -13 -30 -19 -24 -9 -30 -17 -30 -40 0 -38 16 -53 58 -53 19
0 31 -4 27 -10 -7 -11 -55 -13 -80 -4 -22 9 -37 49 -29 80 8 32 84 74 84 46z
m-290 -22 c0 -5 -11 -10 -25 -10 -34 0 -32 -28 3 -37 l27 -7 -30 -6 c-41 -7
-43 -44 -2 -48 15 -2 27 -8 27 -13 0 -9 -63 -3 -81 7 -3 2 -1 30 4 64 10 60
10 60 43 60 19 0 34 -4 34 -10z m115 -15 c14 -13 25 -35 25 -49 0 -33 -43 -66
-88 -66 l-34 0 5 58 c4 31 6 63 7 70 0 22 59 14 85 -13z m65 -2 c0 -16 3 -45
6 -65 5 -31 4 -38 -10 -38 -13 0 -16 12 -16 65 0 37 4 65 10 65 6 0 10 -12 10
-27z"/>
<path d="M1160 2350 c-12 -7 -12 -12 -3 -21 10 -10 14 -9 19 5 8 22 2 27 -16
16z"/>
<path d="M1910 2275 c-18 -21 -3 -32 16 -13 10 9 12 18 6 22 -5 3 -15 -1 -22
-9z"/>
<path d="M528 2064 c-5 -4 -8 -21 -8 -38 0 -21 3 -27 11 -19 6 6 9 23 7 38 -2
15 -6 23 -10 19z"/>
<path d="M586 2062 c-3 -6 -1 -14 5 -17 14 -9 20 -2 10 14 -6 8 -11 9 -15 3z"/>
<path d="M570 2021 c0 -5 5 -13 10 -16 6 -3 10 -2 10 4 0 5 -4 13 -10 16 -5 3
-10 2 -10 -4z"/>
<path d="M363 971 c-14 -4 -20 -10 -15 -18 5 -8 12 -8 26 3 24 17 19 23 -11
15z"/>
<path d="M1270 875 c-19 -23 -8 -50 20 -50 16 0 26 6 28 18 4 18 -14 47 -28
47 -4 0 -13 -7 -20 -15z"/>
<path d="M1522 863 c5 -26 38 -29 38 -4 0 15 -6 21 -21 21 -14 0 -19 -5 -17
-17z"/>
<path d="M1514 805 c-4 -8 -3 -22 0 -31 8 -21 50 -14 54 10 6 31 -43 50 -54
21z"/>
<path d="M2254 876 c-7 -19 3 -36 22 -36 10 0 14 8 12 22 -4 26 -26 36 -34 14z"/>
<path d="M745 476 c-28 -28 -32 -48 -10 -66 32 -26 92 32 69 68 -17 26 -32 25
-59 -2z"/>
<path d="M1640 337 c0 -19 4 -25 15 -21 8 4 15 10 15 14 0 4 -7 13 -15 20 -13
11 -15 8 -15 -13z"/>
<path d="M1330 290 c0 -41 3 -50 18 -50 25 0 42 20 42 50 0 30 -17 50 -42 50
-15 0 -18 -9 -18 -50z"/>
</g>
</svg>
