<?xml version="1.0" standalone="no"?>
<!DOCTYPE svg PUBLIC "-//W3C//DTD SVG 20010904//EN"
 "http://www.w3.org/TR/2001/REC-SVG-20010904/DTD/svg10.dtd">
<svg version="1.0" xmlns="http://www.w3.org/2000/svg"
 width="225.000000pt" height="225.000000pt" viewBox="0 0 225.000000 225.000000"
 preserveAspectRatio="xMidYMid meet">

<g transform="translate(0.000000,225.000000) scale(0.100000,-0.100000)"
fill="#000000" stroke="none">
<path d="M1120 2226 c0 -2 9 -6 20 -9 11 -3 18 -1 14 4 -5 9 -34 13 -34 5z"/>
<path d="M930 2210 c-15 -5 1 -6 40 -3 36 3 67 7 69 9 8 7 -84 2 -109 -6z"/>
<path d="M1265 2210 c17 -4 39 -8 50 -8 16 0 15 2 -5 8 -14 4 -36 8 -50 8 -22
0 -22 -1 5 -8z"/>
<path d="M1127 2204 c-10 -11 21 -34 45 -34 13 0 30 5 38 10 11 7 5 8 -19 3
-25 -4 -37 -2 -46 10 -7 9 -15 14 -18 11z"/>
<path d="M1359 2184 c-9 -11 -23 -14 -46 -11 -20 4 -31 2 -28 -4 10 -16 56
-10 82 11 14 11 21 20 16 20 -6 0 -17 -7 -24 -16z"/>
<path d="M828 2183 c7 -3 16 -2 19 1 4 3 -2 6 -13 5 -11 0 -14 -3 -6 -6z"/>
<path d="M1416 2174 c-5 -12 -2 -15 10 -10 8 3 18 6 20 6 3 0 2 5 -1 10 -9 15
-22 12 -29 -6z"/>
<path d="M905 2170 l-20 -9 20 1 c11 0 31 4 45 8 l25 8 -25 0 c-14 0 -34 -3
-45 -8z"/>
<path d="M1083 2173 c9 -2 23 -2 30 0 6 3 -1 5 -18 5 -16 0 -22 -2 -12 -5z"/>
<path d="M760 2161 c0 -7 -4 -9 -10 -6 -5 3 -22 -1 -37 -9 -16 -8 -23 -16 -18
-16 6 -1 18 -3 28 -5 9 -2 15 1 12 5 -3 5 -1 11 5 15 5 3 10 0 10 -7 0 -8 5
-6 11 5 6 10 8 21 5 24 -3 4 -6 1 -6 -6z"/>
<path d="M845 2160 c-3 -5 1 -10 10 -10 9 0 13 5 10 10 -3 6 -8 10 -10 10 -2
0 -7 -4 -10 -10z"/>
<path d="M1240 2158 c0 -4 4 -8 9 -8 6 0 12 4 15 8 3 5 -1 9 -9 9 -8 0 -15 -4
-15 -9z"/>
<path d="M1380 2160 c-9 -6 -10 -10 -3 -10 6 0 15 5 18 10 8 12 4 12 -15 0z"/>
<path d="M1200 2145 c0 -8 -5 -15 -12 -15 -15 0 -2 -13 16 -16 8 -1 11 6 8 22
-5 27 -12 32 -12 9z"/>
<path d="M1505 2150 c3 -5 8 -10 11 -10 2 0 4 5 4 10 0 6 -5 10 -11 10 -5 0
-7 -4 -4 -10z"/>
<path d="M800 2138 c-12 -8 -12 -9 3 -4 12 4 21 -1 27 -17 6 -15 9 -17 9 -6 1
25 -21 40 -39 27z"/>
<path d="M908 2133 c7 -3 16 -2 19 1 4 3 -2 6 -13 5 -11 0 -14 -3 -6 -6z"/>
<path d="M1240 2130 c8 -5 22 -9 30 -9 10 0 8 3 -5 9 -27 12 -43 12 -25 0z"/>
<path d="M693 2109 c36 -19 40 -19 63 -4 13 8 24 18 24 21 0 4 -10 0 -23 -9
-20 -13 -27 -13 -56 -1 -48 20 -52 16 -8 -7z"/>
<path d="M860 2120 c0 -5 7 -7 15 -4 8 4 15 8 15 10 0 2 -7 4 -15 4 -8 0 -15
-4 -15 -10z"/>
<path d="M997 2090 c8 -57 20 -65 20 -14 0 31 -3 41 -7 29 -7 -20 -8 -20 -12
0 -3 11 -3 4 -1 -15z"/>
<path d="M1055 2120 c-4 -7 3 -8 22 -4 38 9 42 14 10 14 -14 0 -29 -5 -32 -10z"/>
<path d="M1134 2119 c-8 -14 14 -19 25 -6 8 10 7 14 -5 14 -8 0 -17 -4 -20 -8z"/>
<path d="M1388 2123 c7 -3 16 -2 19 1 4 3 -2 6 -13 5 -11 0 -14 -3 -6 -6z"/>
<path d="M1424 2115 c-4 -8 -12 -15 -20 -15 -8 0 -15 -11 -15 -25 -1 -14 -2
-31 -3 -37 -1 -7 -8 -16 -16 -20 -11 -5 -8 -7 8 -7 19 -1 22 -5 17 -23 -5 -20
-4 -21 5 -6 8 13 8 24 -1 40 -9 17 -9 24 3 32 8 6 18 24 22 39 4 17 11 25 18
21 7 -4 8 -3 4 4 -10 16 -15 15 -22 -3z"/>
<path d="M1565 2120 c3 -5 -2 -10 -12 -11 -10 0 -13 -3 -6 -5 7 -3 20 -1 29 4
12 7 27 4 51 -10 18 -11 33 -18 33 -15 0 3 -16 14 -36 26 -37 22 -70 28 -59
11z"/>
<path d="M783 2102 c-10 -10 -37 -26 -61 -37 -23 -10 -41 -20 -39 -22 7 -7 94
37 112 57 22 25 13 27 -12 2z"/>
<path d="M958 2095 c2 -14 6 -25 8 -25 2 0 4 11 4 25 0 14 -4 25 -9 25 -4 0
-6 -11 -3 -25z"/>
<path d="M883 2103 c-15 -6 -17 -39 -3 -48 5 -3 18 -1 27 4 16 9 16 10 -4 11
-25 0 -29 10 -11 28 13 13 11 14 -9 5z"/>
<path d="M1252 2085 c-11 -25 -32 -34 -32 -15 0 5 -6 7 -14 4 -8 -3 -17 0 -22
7 -4 7 -3 10 4 5 6 -3 13 -2 17 4 3 5 -3 10 -14 10 -41 0 -20 -29 35 -47 22
-8 31 -8 31 1 0 6 3 21 7 34 10 30 2 28 -12 -3z"/>
<path d="M590 2090 c-8 -5 -10 -10 -5 -10 6 0 17 5 25 10 8 5 11 10 5 10 -5 0
-17 -5 -25 -10z"/>
<path d="M685 2090 c6 -10 4 -12 -8 -7 -21 8 -48 -40 -41 -70 5 -18 2 -20 -24
-17 -19 2 -36 -4 -51 -17 -30 -28 -26 -33 9 -13 34 20 53 11 24 -11 -10 -8
-14 -15 -8 -15 5 0 16 6 23 13 11 10 14 9 18 -1 4 -10 9 -8 20 5 14 17 14 17
9 -1 -6 -17 -5 -17 11 -5 15 12 16 12 10 -3 -3 -10 -2 -18 3 -18 6 0 10 11 10
25 0 19 -4 23 -17 18 -12 -5 -15 -2 -10 10 3 9 2 17 -2 17 -14 0 -23 33 -10
40 6 4 10 10 10 14 -3 20 0 25 13 20 18 -7 30 12 15 22 -8 5 -9 3 -4 -6z m-35
-112 c0 -15 -18 -17 -30 -3 -9 11 -8 14 9 12 12 -1 21 -5 21 -9z"/>
<path d="M1039 2097 c-6 -19 -5 -38 3 -44 7 -3 8 -1 4 5 -3 6 1 15 10 20 15 8
15 10 0 15 -9 4 -16 5 -17 4z"/>
<path d="M1521 2088 c-1 -10 -9 -18 -18 -18 -15 0 -16 -2 -3 -10 17 -10 35 12
26 33 -2 7 -5 4 -5 -5z"/>
<path d="M836 2081 c-4 -7 -5 -15 -2 -18 9 -9 19 4 14 18 -4 11 -6 11 -12 0z"/>
<path d="M1090 2075 c-14 -8 -20 -14 -14 -15 5 0 19 7 30 15 24 18 16 19 -16
0z"/>
<path d="M1557 2083 c-7 -11 42 -38 52 -28 7 8 -20 25 -30 19 -4 -2 -9 1 -11
8 -3 8 -6 9 -11 1z"/>
<path d="M1298 2073 c7 -3 16 -2 19 1 4 3 -2 6 -13 5 -11 0 -14 -3 -6 -6z"/>
<path d="M534 2054 c-18 -14 -18 -15 4 -4 12 6 22 13 22 15 0 8 -5 6 -26 -11z"/>
<path d="M1115 2060 c-3 -5 -1 -10 4 -10 6 0 11 5 11 10 0 6 -2 10 -4 10 -3 0
-8 -4 -11 -10z"/>
<path d="M1152 2061 c7 -25 36 -37 50 -23 11 11 9 12 -6 6 -13 -5 -24 -1 -34
12 -8 10 -12 13 -10 5z"/>
<path d="M1461 2062 c-1 -7 -5 -10 -11 -7 -5 3 -7 0 -4 -8 3 -8 -2 -22 -11
-31 -9 -9 -12 -16 -7 -16 14 0 44 49 38 63 -3 9 -5 8 -5 -1z"/>
<path d="M1719 2044 c17 -14 31 -33 31 -42 0 -13 -3 -12 -16 4 -11 13 -17 15
-20 6 -3 -6 -11 -9 -17 -5 -7 4 -6 -1 2 -11 8 -9 20 -15 27 -12 8 3 18 -3 24
-13 5 -10 17 -22 27 -25 16 -6 16 -5 -1 13 -10 10 -16 28 -14 39 3 17 -48 72
-67 72 -3 0 7 -12 24 -26z m11 -44 c0 -5 -5 -10 -11 -10 -5 0 -7 5 -4 10 3 6
8 10 11 10 2 0 4 -4 4 -10z"/>
<path d="M760 2050 c-8 -5 -10 -10 -5 -10 6 0 17 5 25 10 8 5 11 10 5 10 -5 0
-17 -5 -25 -10z"/>
<path d="M805 2035 c18 -49 17 -57 -4 -71 -12 -9 -20 -18 -17 -22 2 -4 -12
-14 -30 -23 -19 -9 -34 -12 -34 -7 0 5 -6 4 -12 -2 -65 -54 -73 -59 -81 -47
-6 8 -7 6 -3 -5 7 -23 -10 -24 -18 -1 -6 14 -9 14 -22 -5 -8 -12 -20 -19 -26
-16 -7 4 -8 2 -4 -4 4 -7 1 -12 -7 -12 -8 0 -17 14 -21 32 -3 17 -8 29 -10 27
-11 -11 9 -62 25 -66 10 -3 16 -10 12 -16 -11 -18 19 -2 92 49 38 27 74 49 80
50 5 1 33 14 60 28 32 16 43 25 30 26 -16 0 -17 2 -6 9 9 6 22 6 34 -1 10 -5
21 -7 25 -4 3 3 0 6 -7 6 -7 0 -9 4 -6 10 4 6 -1 7 -11 3 -11 -4 -15 -3 -10 5
3 6 -3 26 -15 44 -12 18 -18 24 -14 13z m-210 -212 c-28 -20 -41 -16 -20 7 10
11 22 17 28 13 6 -4 3 -12 -8 -20z"/>
<path d="M845 2037 c-6 -13 -1 -25 15 -40 13 -12 19 -16 15 -9 -4 8 -11 26
-15 40 -7 24 -8 25 -15 9z"/>
<path d="M958 2043 c7 -3 16 -2 19 1 4 3 -2 6 -13 5 -11 0 -14 -3 -6 -6z"/>
<path d="M1558 2038 c15 -8 21 -16 16 -27 -13 -31 -16 -69 -5 -75 7 -5 11 3
10 21 -3 43 0 53 14 49 6 -1 9 -1 4 1 -4 3 -5 9 -1 14 3 5 -7 14 -21 19 -35
13 -46 12 -17 -2z"/>
<path d="M507 2029 c7 -7 15 -10 18 -7 3 3 -2 9 -12 12 -14 6 -15 5 -6 -5z"/>
<path d="M704 2025 c-18 -13 -18 -14 4 -8 12 3 25 9 28 14 8 14 -10 11 -32 -6z"/>
<path d="M908 2033 c6 -2 18 -2 25 0 6 3 1 5 -13 5 -14 0 -19 -2 -12 -5z"/>
<path d="M1060 2030 c-10 -6 -11 -10 -2 -10 25 0 11 -20 -15 -21 -16 0 -22 -3
-15 -6 7 -3 24 -2 38 1 21 6 23 10 14 21 -9 10 -7 14 7 18 12 3 13 5 3 6 -8 0
-22 -4 -30 -9z"/>
<path d="M1143 2025 c0 -8 4 -12 9 -9 5 3 6 10 3 15 -9 13 -12 11 -12 -6z"/>
<path d="M1415 2030 c3 -5 8 -10 11 -10 2 0 4 5 4 10 0 6 -5 10 -11 10 -5 0
-7 -4 -4 -10z"/>
<path d="M1490 2029 c0 -5 12 -14 26 -19 31 -12 34 -12 34 -1 0 5 -13 14 -30
20 -19 6 -30 6 -30 0z"/>
<path d="M1215 2020 c-3 -6 1 -7 9 -4 18 7 21 14 7 14 -6 0 -13 -4 -16 -10z"/>
<path d="M555 2010 c-4 -6 -11 -7 -17 -4 -7 4 -8 2 -4 -5 6 -9 11 -9 22 0 14
11 18 19 10 19 -3 0 -8 -5 -11 -10z"/>
<path d="M481 1989 c-28 -23 -23 -24 14 -5 14 8 23 16 18 19 -4 3 -19 -3 -32
-14z"/>
<path d="M730 1995 c0 -8 2 -15 4 -15 2 0 6 7 10 15 3 8 1 15 -4 15 -6 0 -10
-7 -10 -15z"/>
<path d="M894 2001 c3 -5 15 -7 26 -4 28 7 25 13 -6 13 -14 0 -23 -4 -20 -9z"/>
<path d="M1165 2000 l-70 -6 67 -2 c37 -1 70 3 73 8 3 6 5 9 3 8 -2 -1 -34 -4
-73 -8z"/>
<path d="M1325 1995 c39 -13 39 -14 10 -15 -23 -1 -15 -6 40 -24 39 -12 99
-38 135 -56 35 -18 59 -26 53 -18 -7 7 -43 27 -81 43 -51 21 -68 33 -65 45 4
12 3 12 -5 1 -11 -15 -56 -6 -47 10 7 10 -37 30 -63 28 -9 -1 1 -7 23 -14z"/>
<path d="M1460 1996 c0 -8 -8 -17 -17 -19 -14 -4 -12 -5 5 -6 12 0 22 4 22 9
0 6 5 10 10 10 6 0 10 -11 10 -25 0 -14 8 -29 19 -35 25 -13 31 -13 31 0 0 6
-9 10 -20 10 -13 0 -20 7 -20 20 0 25 16 26 29 3 10 -17 10 -17 11 0 0 9 -2
17 -4 17 -2 0 -20 7 -40 15 -31 13 -36 13 -36 1z"/>
<path d="M1642 1994 c-7 -8 -8 -14 -3 -14 10 0 25 19 20 25 -2 1 -10 -3 -17
-11z"/>
<path d="M1799 1987 c27 -30 19 -36 -13 -9 l-21 17 19 -23 c11 -12 26 -20 33
-18 7 3 13 1 13 -4 0 -6 5 -9 12 -7 11 2 13 -2 17 -34 0 -6 7 -9 15 -6 7 3 19
0 26 -6 9 -8 8 -5 -1 10 -9 16 -16 19 -21 10 -7 -12 -9 -10 -12 14 0 6 -21 28
-46 47 -35 28 -40 30 -21 9z"/>
<path d="M707 1970 c7 -40 9 -45 16 -33 3 4 -1 22 -8 38 l-14 30 6 -35z"/>
<path d="M760 1991 c0 -5 7 -12 16 -15 14 -5 15 -4 4 9 -14 17 -20 19 -20 6z"/>
<path d="M963 1983 c9 -2 25 -2 35 0 9 3 1 5 -18 5 -19 0 -27 -2 -17 -5z"/>
<path d="M1253 1983 c9 -2 25 -2 35 0 9 3 1 5 -18 5 -19 0 -27 -2 -17 -5z"/>
<path d="M403 1956 c-20 -20 -20 -22 -3 -22 11 0 17 2 15 5 -3 2 2 13 12 23
23 25 3 21 -24 -6z"/>
<path d="M485 1960 c-18 -20 -18 -21 0 -38 18 -16 18 -16 5 1 -12 17 -11 21
10 38 14 10 20 19 14 19 -6 0 -19 -9 -29 -20z"/>
<path d="M908 1973 c6 -2 18 -2 25 0 6 3 1 5 -13 5 -14 0 -19 -2 -12 -5z"/>
<path d="M1665 1971 c-3 -5 -1 -12 4 -15 5 -4 12 0 15 6 5 10 7 10 12 1 3 -7
10 -13 16 -13 6 0 6 6 -2 15 -14 17 -36 20 -45 6z"/>
<path d="M747 1950 c-3 -11 -3 -20 -1 -20 2 0 8 9 14 20 6 11 7 20 2 20 -6 0
-12 -9 -15 -20z"/>
<path d="M1015 1959 c-274 -35 -512 -204 -640 -454 -25 -49 -45 -96 -45 -104
1 -16 30 31 34 53 2 11 41 86 61 117 31 50 98 129 136 162 24 21 56 49 70 61
43 38 210 114 298 137 73 18 103 20 225 16 165 -5 252 -29 379 -101 90 -51
106 -45 18 7 -85 51 -220 94 -333 106 -107 12 -104 12 -203 0z"/>
<path d="M1611 1948 c-10 -25 -5 -41 10 -33 5 4 9 2 9 -2 0 -5 10 -9 23 -10
20 -2 20 0 -5 13 -16 8 -28 22 -28 31 0 13 3 14 12 5 17 -17 33 -15 18 3 -17
21 -29 19 -39 -7z"/>
<path d="M455 1917 c22 -31 25 -41 14 -53 -11 -14 -13 -14 -21 0 -9 15 -38 12
-38 -5 0 -4 6 -6 13 -4 6 3 20 -8 29 -25 16 -28 48 -42 48 -20 0 6 -3 9 -7 9
-21 -3 -33 2 -33 15 0 22 21 31 32 15 7 -11 8 -9 4 5 -4 10 -1 26 6 34 11 13
11 14 -1 7 -10 -6 -23 2 -44 26 l-29 34 27 -38z"/>
<path d="M511 1934 c0 -11 3 -14 6 -6 3 7 2 16 -1 19 -3 4 -6 -2 -5 -13z"/>
<path d="M1686 1931 c-12 -5 -15 -10 -9 -14 6 -4 16 0 23 8 14 17 13 17 -14 6z"/>
<path d="M1777 1914 c-15 -13 -23 -24 -16 -24 6 0 18 8 26 18 12 14 14 15 10
1 -3 -9 0 -22 6 -28 8 -8 7 -16 -7 -29 -14 -14 -17 -14 -14 -2 2 9 0 17 -4 18
-21 6 -28 0 -28 -24 0 -22 2 -25 15 -14 8 7 15 9 15 4 0 -4 11 3 24 15 16 15
26 19 31 11 4 -6 -1 -18 -11 -26 -18 -14 -18 -14 4 -4 24 12 28 25 11 35 -6 4
-8 13 -5 21 3 8 0 13 -7 11 -7 -1 -12 6 -12 15 0 27 -8 28 -38 2z m-4 -59 c-3
-9 -8 -14 -10 -11 -3 3 -2 9 2 15 9 16 15 13 8 -4z"/>
<path d="M540 1920 c0 -5 4 -10 9 -10 6 0 13 5 16 10 3 6 -1 10 -9 10 -9 0
-16 -4 -16 -10z"/>
<path d="M654 1915 c8 -8 18 -15 22 -15 3 0 1 7 -6 15 -7 8 -17 15 -22 15 -5
0 -3 -7 6 -15z"/>
<path d="M415 1909 c-4 -6 -5 -12 -2 -15 2 -3 7 2 10 11 7 17 1 20 -8 4z"/>
<path d="M1555 1910 c3 -5 8 -10 11 -10 2 0 4 5 4 10 0 6 -5 10 -11 10 -5 0
-7 -4 -4 -10z"/>
<path d="M1715 1910 c-4 -7 -2 -16 6 -21 18 -11 23 -4 11 17 -7 12 -11 13 -17
4z"/>
<path d="M376 1883 c-6 -14 -5 -15 5 -6 7 7 10 15 7 18 -3 3 -9 -2 -12 -12z"/>
<path d="M543 1873 c10 -23 32 -21 23 2 -3 8 0 16 7 18 7 2 0 4 -14 3 -23 -1
-25 -3 -16 -23z"/>
<path d="M600 1889 c0 -5 9 -9 20 -9 11 0 20 2 20 4 0 2 -9 6 -20 9 -11 3 -20
1 -20 -4z"/>
<path d="M1596 1886 c6 -16 22 -21 57 -18 14 2 15 -1 5 -18 -11 -18 -14 -18
-35 -4 -42 27 -24 7 31 -34 61 -46 119 -105 174 -178 20 -27 44 -49 52 -49 22
1 30 -16 19 -37 -5 -10 -7 -18 -5 -18 3 0 10 8 15 18 8 14 3 29 -20 63 -16 24
-29 39 -29 32 0 -6 5 -15 10 -18 12 -8 13 -25 1 -25 -5 0 -18 15 -29 34 -15
26 -17 37 -9 47 10 11 9 11 -3 1 -13 -9 -21 -6 -43 17 -29 32 -25 51 6 24 19
-18 19 -17 6 4 -13 22 -40 39 -38 25 4 -24 -5 -21 -39 16 -22 23 -44 42 -49
42 -13 0 -11 29 5 57 11 20 10 21 -16 14 -18 -5 -35 -3 -50 7 -20 13 -22 13
-16 -2z"/>
<path d="M1866 1869 c18 -20 18 -21 -1 -35 -18 -14 -18 -14 3 -14 13 0 22 6
22 16 0 22 -19 54 -32 54 -6 0 -3 -9 8 -21z"/>
<path d="M295 1850 c-22 -22 -25 -30 -13 -30 9 0 18 -6 21 -12 3 -9 10 -7 23
6 11 11 12 15 3 8 -24 -18 -44 6 -23 29 16 18 49 15 37 -4 -3 -6 -1 -7 5 -3
16 10 15 14 -7 25 -14 8 -24 4 -46 -19z"/>
<path d="M1710 1856 c8 -23 8 -31 -2 -38 -10 -7 -9 -8 2 -5 17 5 16 45 -1 62
-7 6 -6 0 1 -19z"/>
<path d="M1926 1867 c3 -9 10 -17 16 -17 5 0 7 -4 4 -9 -3 -5 -16 -7 -29 -5
-12 2 -15 1 -7 -2 8 -4 17 -11 20 -15 3 -5 11 0 17 10 10 16 8 22 -8 37 -18
16 -19 16 -13 1z"/>
<path d="M376 1841 c-3 -5 1 -14 8 -20 12 -10 13 -8 9 8 -6 23 -9 25 -17 12z"/>
<path d="M1178 1833 c4 -10 7 -28 6 -40 -1 -17 4 -23 20 -23 15 0 17 3 8 9 -8
4 -13 11 -13 15 5 33 -1 56 -14 56 -12 0 -13 -5 -7 -17z"/>
<path d="M416 1822 c-3 -6 -1 -14 5 -17 15 -10 25 3 12 16 -7 7 -13 7 -17 1z"/>
<path d="M1956 1815 c-3 -8 -1 -15 4 -15 6 0 10 5 10 11 0 5 12 -3 26 -18 l26
-28 -22 33 c-24 35 -35 40 -44 17z"/>
<path d="M371 1794 c13 -17 26 -30 28 -27 3 2 -8 16 -24 31 l-28 27 24 -31z"/>
<path d="M1780 1816 c0 -2 8 -10 18 -17 15 -13 16 -12 3 4 -13 16 -21 21 -21
13z"/>
<path d="M265 1800 c-3 -5 -5 -10 -3 -11 33 -8 38 -7 27 7 -14 17 -16 17 -24
4z"/>
<path d="M507 1791 c-4 -17 -3 -21 5 -13 5 5 8 16 6 23 -3 8 -7 3 -11 -10z"/>
<path d="M925 1802 c-10 -7 -18 -32 -10 -32 2 0 9 9 15 20 12 22 11 24 -5 12z"/>
<path d="M1316 1802 c6 -4 14 -14 17 -22 4 -10 6 -8 6 8 1 15 -5 22 -16 22
-11 0 -14 -3 -7 -8z"/>
<path d="M1626 1799 c5 -9 32 -37 60 -62 121 -109 221 -284 257 -452 4 -15 5
-13 6 7 3 64 -77 242 -153 343 -47 62 -190 199 -170 164z"/>
<path d="M1848 1787 c17 -18 19 -26 10 -35 -8 -8 -8 -12 -1 -12 20 0 22 28 2
49 -11 12 -23 21 -26 21 -4 0 3 -10 15 -23z"/>
<path d="M876 1785 c-3 -8 -1 -15 3 -15 5 0 11 7 15 15 3 8 1 15 -3 15 -5 0
-11 -7 -15 -15z"/>
<path d="M955 1790 c-3 -5 -1 -10 4 -10 6 0 11 5 11 10 0 6 -2 10 -4 10 -3 0
-8 -4 -11 -10z"/>
<path d="M1270 1790 c0 -5 7 -10 16 -10 8 0 12 5 9 10 -3 6 -10 10 -16 10 -5
0 -9 -4 -9 -10z"/>
<path d="M1720 1796 c0 -2 8 -10 18 -17 15 -13 16 -12 3 4 -13 16 -21 21 -21
13z"/>
<path d="M1878 1793 c7 -3 16 -2 19 1 4 3 -2 6 -13 5 -11 0 -14 -3 -6 -6z"/>
<path d="M1925 1771 c4 -30 3 -33 -15 -28 -11 3 -18 1 -14 -4 8 -14 34 -11 40
4 2 7 0 24 -6 38 -10 22 -10 21 -5 -10z"/>
<path d="M246 1777 c3 -10 9 -15 12 -12 3 3 0 11 -7 18 -10 9 -11 8 -5 -6z"/>
<path d="M345 1770 c10 -11 23 -20 28 -20 6 0 2 9 -8 20 -10 11 -23 20 -28 20
-6 0 -2 -9 8 -20z"/>
<path d="M424 1764 c7 -15 13 -19 18 -11 12 18 10 24 -10 29 -16 5 -17 2 -8
-18z"/>
<path d="M1810 1775 c-10 -12 -10 -18 0 -30 7 -8 17 -15 23 -15 6 0 7 3 4 7
-4 3 -1 13 6 22 11 14 10 14 -6 2 -22 -17 -34 -7 -17 14 7 8 10 15 7 15 -2 0
-10 -7 -17 -15z"/>
<path d="M470 1764 c0 -8 5 -12 10 -9 6 4 8 11 5 16 -9 14 -15 11 -15 -7z"/>
<path d="M500 1740 c-31 -35 -36 -38 -47 -24 -11 15 -12 14 -10 -3 2 -31 22
-23 69 24 23 24 38 43 33 42 -6 0 -26 -18 -45 -39z"/>
<path d="M1235 1770 c3 -5 11 -10 16 -10 6 0 7 5 4 10 -3 6 -11 10 -16 10 -6
0 -7 -4 -4 -10z"/>
<path d="M1375 1770 c3 -5 8 -10 11 -10 2 0 4 5 4 10 0 6 -5 10 -11 10 -5 0
-7 -4 -4 -10z"/>
<path d="M1970 1776 c0 -2 8 -10 18 -17 15 -13 16 -12 3 4 -13 16 -21 21 -21
13z"/>
<path d="M212 1743 c-30 -44 -34 -53 -23 -53 6 0 11 7 11 16 0 9 5 12 12 8 7
-4 8 -3 4 4 -4 7 -2 12 3 12 6 0 11 -8 11 -17 0 -15 2 -14 15 3 8 10 14 24 15
29 0 6 -4 4 -9 -4 -5 -7 -14 -10 -20 -6 -9 5 -9 10 0 21 6 8 9 14 6 14 -3 0
-14 -12 -25 -27z"/>
<path d="M310 1767 c0 -2 15 -16 33 -33 l32 -29 -29 33 c-28 30 -36 37 -36 29z"/>
<path d="M948 1763 c7 -3 16 -2 19 1 4 3 -2 6 -13 5 -11 0 -14 -3 -6 -6z"/>
<path d="M1417 1750 c3 -11 9 -20 14 -20 11 0 11 3 3 24 -9 23 -23 20 -17 -4z"/>
<path d="M1950 1761 c0 -5 7 -12 16 -15 14 -5 15 -4 4 9 -14 17 -20 19 -20 6z"/>
<path d="M1185 1750 c-4 -6 3 -10 14 -10 25 0 27 6 6 13 -8 4 -17 2 -20 -3z"/>
<path d="M2020 1753 c0 -7 4 -13 9 -13 5 0 16 -15 25 -32 8 -18 16 -26 16 -18
0 8 -11 29 -25 45 -13 17 -24 24 -25 18z"/>
<path d="M945 1740 c-3 -5 -2 -10 4 -10 5 0 13 5 16 10 3 6 2 10 -4 10 -5 0
-13 -4 -16 -10z"/>
<path d="M990 1740 c0 -5 7 -7 15 -4 8 4 15 8 15 10 0 2 -7 4 -15 4 -8 0 -15
-4 -15 -10z"/>
<path d="M1240 1740 c0 -5 5 -10 10 -10 6 0 10 5 10 10 0 6 -4 10 -10 10 -5 0
-10 -4 -10 -10z"/>
<path d="M391 1735 c0 -5 6 -21 13 -34 10 -18 14 -20 19 -9 3 8 1 21 -4 29 -5
8 -9 10 -9 4 0 -5 -5 -3 -10 5 -5 8 -10 11 -9 5z"/>
<path d="M1465 1730 c3 -5 11 -10 16 -10 6 0 7 5 4 10 -3 6 -11 10 -16 10 -6
0 -7 -4 -4 -10z"/>
<path d="M273 1718 c-20 -27 -22 -36 -9 -41 10 -4 12 0 9 14 -4 13 2 22 18 28
16 6 18 10 8 10 -9 1 -21 -5 -26 -11z"/>
<path d="M329 1717 c6 -8 7 -18 3 -22 -4 -5 -1 -5 6 -1 10 6 10 11 1 22 -6 8
-14 14 -16 14 -3 0 0 -6 6 -13z"/>
<path d="M1863 1715 c-8 -9 -9 -16 -3 -20 6 -3 13 1 16 10 6 14 9 14 16 3 8
-10 9 -10 6 1 -6 20 -21 23 -35 6z"/>
<path d="M1958 1713 c-11 -13 -13 -25 -7 -40 4 -13 11 -23 13 -23 3 0 1 11 -4
24 -7 20 -5 27 13 40 12 8 17 15 11 15 -6 1 -18 -7 -26 -16z"/>
<path d="M775 1710 c-3 -5 -1 -10 4 -10 6 0 11 5 11 10 0 6 -2 10 -4 10 -3 0
-8 -4 -11 -10z"/>
<path d="M935 1710 c-3 -5 1 -10 9 -10 9 0 16 5 16 10 0 6 -4 10 -9 10 -6 0
-13 -4 -16 -10z"/>
<path d="M988 1708 c9 -9 15 -9 24 0 9 9 7 12 -12 12 -19 0 -21 -3 -12 -12z"/>
<path d="M1035 1710 c4 -6 11 -8 16 -5 14 9 11 15 -7 15 -8 0 -12 -5 -9 -10z"/>
<path d="M1195 1710 c4 -6 11 -8 16 -5 14 9 11 15 -7 15 -8 0 -12 -5 -9 -10z"/>
<path d="M1240 1710 c0 -5 7 -10 16 -10 8 0 12 5 9 10 -3 6 -10 10 -16 10 -5
0 -9 -4 -9 -10z"/>
<path d="M1435 1710 c3 -5 8 -10 11 -10 2 0 4 5 4 10 0 6 -5 10 -11 10 -5 0
-7 -4 -4 -10z"/>
<path d="M291 1705 c0 -5 3 -16 8 -23 7 -11 9 -10 14 3 4 9 3 14 -2 10 -5 -3
-12 1 -14 7 -3 7 -6 9 -6 3z"/>
<path d="M890 1700 c0 -5 5 -10 10 -10 6 0 10 5 10 10 0 6 -4 10 -10 10 -5 0
-10 -4 -10 -10z"/>
<path d="M1475 1700 c3 -5 11 -10 16 -10 6 0 7 5 4 10 -3 6 -11 10 -16 10 -6
0 -7 -4 -4 -10z"/>
<path d="M1510 1700 c0 -6 7 -13 15 -17 24 -9 27 1 5 15 -13 8 -20 8 -20 2z"/>
<path d="M1999 1696 c4 -6 10 -16 12 -23 3 -8 10 -7 24 4 16 13 17 15 3 10
-11 -4 -18 -1 -18 7 0 7 -7 13 -15 13 -9 0 -11 -4 -6 -11z"/>
<path d="M373 1686 c0 -8 6 -12 14 -9 7 3 10 9 7 14 -8 14 -21 11 -21 -5z"/>
<path d="M1395 1690 c3 -5 10 -10 16 -10 5 0 9 5 9 10 0 6 -7 10 -16 10 -8 0
-12 -4 -9 -10z"/>
<path d="M220 1682 c0 -6 -7 -18 -16 -26 -8 -9 -11 -16 -5 -16 13 0 35 39 27
48 -3 3 -6 0 -6 -6z"/>
<path d="M765 1680 c-3 -5 -1 -10 4 -10 6 0 11 5 11 10 0 6 -2 10 -4 10 -3 0
-8 -4 -11 -10z"/>
<path d="M985 1679 c-4 -6 -5 -13 -2 -16 7 -7 27 6 27 18 0 12 -17 12 -25 -2z"/>
<path d="M1030 1680 c0 -5 7 -10 15 -10 8 0 15 5 15 10 0 6 -7 10 -15 10 -8 0
-15 -4 -15 -10z"/>
<path d="M1200 1680 c0 -5 5 -10 11 -10 5 0 7 5 4 10 -3 6 -8 10 -11 10 -2 0
-4 -4 -4 -10z"/>
<path d="M1245 1680 c-3 -5 1 -10 10 -10 9 0 13 5 10 10 -3 6 -8 10 -10 10 -2
0 -7 -4 -10 -10z"/>
<path d="M1445 1680 c3 -5 8 -10 11 -10 2 0 4 5 4 10 0 6 -5 10 -11 10 -5 0
-7 -4 -4 -10z"/>
<path d="M1880 1675 c-7 -8 -8 -15 -4 -15 5 0 17 -12 26 -27 10 -16 18 -23 18
-16 0 6 -5 15 -10 18 -6 4 -8 15 -5 25 8 24 -9 34 -25 15z"/>
<path d="M326 1663 c-9 -22 25 -45 38 -25 2 4 1 14 -5 22 -6 10 -9 11 -9 3 0
-7 -4 -13 -10 -13 -5 0 -7 7 -4 15 4 8 4 15 1 15 -3 0 -8 -8 -11 -17z"/>
<path d="M885 1670 c-3 -5 1 -10 10 -10 9 0 13 5 10 10 -3 6 -8 10 -10 10 -2
0 -7 -4 -10 -10z"/>
<path d="M930 1670 c0 -5 7 -10 15 -10 8 0 15 5 15 10 0 6 -7 10 -15 10 -8 0
-15 -4 -15 -10z"/>
<path d="M1305 1670 c3 -5 8 -10 11 -10 2 0 4 5 4 10 0 6 -5 10 -11 10 -5 0
-7 -4 -4 -10z"/>
<path d="M401 1619 c-18 -28 -31 -52 -29 -54 2 -3 20 20 40 50 20 30 33 55 29
55 -3 0 -21 -23 -40 -51z"/>
<path d="M710 1659 c0 -5 5 -7 10 -4 6 3 10 8 10 11 0 2 -4 4 -10 4 -5 0 -10
-5 -10 -11z"/>
<path d="M1525 1660 c3 -5 8 -10 11 -10 2 0 4 5 4 10 0 6 -5 10 -11 10 -5 0
-7 -4 -4 -10z"/>
<path d="M2076 1653 c-4 -9 -4 -14 0 -10 4 4 13 -1 21 -11 12 -15 13 -14 2 8
-16 33 -16 33 -23 13z"/>
<path d="M233 1645 c-3 -9 -3 -19 1 -22 3 -4 6 1 6 10 0 20 4 21 33 6 21 -10
21 -10 3 5 -25 20 -35 20 -43 1z"/>
<path d="M675 1650 c-3 -5 -2 -10 4 -10 5 0 13 5 16 10 3 6 2 10 -4 10 -5 0
-13 -4 -16 -10z"/>
<path d="M1450 1650 c0 -5 5 -10 11 -10 5 0 7 5 4 10 -3 6 -8 10 -11 10 -2 0
-4 -4 -4 -10z"/>
<path d="M1565 1650 c3 -5 11 -10 16 -10 6 0 7 5 4 10 -3 6 -11 10 -16 10 -6
0 -7 -4 -4 -10z"/>
<path d="M2005 1630 c9 -16 18 -30 21 -30 2 0 -2 14 -11 30 -9 17 -18 30 -21
30 -2 0 2 -13 11 -30z"/>
<path d="M986 1643 c-11 -11 -6 -23 9 -23 8 0 15 4 15 9 0 13 -16 22 -24 14z"/>
<path d="M1495 1640 c3 -5 11 -10 16 -10 6 0 7 5 4 10 -3 6 -11 10 -16 10 -6
0 -7 -4 -4 -10z"/>
<path d="M875 1631 c-6 -11 9 -23 19 -14 9 9 7 23 -3 23 -6 0 -12 -4 -16 -9z"/>
<path d="M927 1634 c-4 -4 -4 -10 -1 -15 6 -10 34 0 34 12 0 10 -24 12 -33 3z"/>
<path d="M1200 1629 c0 -5 5 -7 10 -4 6 3 10 8 10 11 0 2 -4 4 -10 4 -5 0 -10
-5 -10 -11z"/>
<path d="M1250 1630 c0 -5 5 -10 10 -10 6 0 10 5 10 10 0 6 -4 10 -10 10 -5 0
-10 -4 -10 -10z"/>
<path d="M1310 1630 c0 -5 5 -10 10 -10 6 0 10 5 10 10 0 6 -4 10 -10 10 -5 0
-10 -4 -10 -10z"/>
<path d="M1535 1630 c3 -5 8 -10 11 -10 2 0 4 5 4 10 0 6 -5 10 -11 10 -5 0
-7 -4 -4 -10z"/>
<path d="M2040 1634 c0 -6 7 -19 16 -30 14 -18 14 -18 3 6 -14 31 -19 36 -19
24z"/>
<path d="M1575 1620 c3 -5 11 -10 16 -10 6 0 7 5 4 10 -3 6 -11 10 -16 10 -6
0 -7 -4 -4 -10z"/>
<path d="M1975 1620 c3 -5 8 -10 11 -10 2 0 4 5 4 10 0 6 -5 10 -11 10 -5 0
-7 -4 -4 -10z"/>
<path d="M255 1610 c3 -5 8 -10 11 -10 2 0 4 5 4 10 0 6 -5 10 -11 10 -5 0 -7
-4 -4 -10z"/>
<path d="M320 1604 c0 -8 5 -12 10 -9 6 4 8 11 5 16 -9 14 -15 11 -15 -7z"/>
<path d="M353 1595 c-6 -14 -8 -25 -4 -25 4 0 13 11 19 25 6 14 8 25 4 25 -4
0 -12 -11 -19 -25z"/>
<path d="M635 1610 c-3 -5 -1 -10 4 -10 6 0 11 5 11 10 0 6 -2 10 -4 10 -3 0
-8 -4 -11 -10z"/>
<path d="M164 1596 c-9 -10 -7 -15 8 -25 10 -6 24 -9 31 -6 7 4 3 -1 -7 -9
-21 -17 -11 -22 14 -6 10 6 22 4 38 -6 13 -9 26 -14 28 -11 2 2 -18 16 -46 31
-28 15 -48 32 -45 37 9 14 -8 10 -21 -5z"/>
<path d="M210 1602 c0 -4 11 -12 25 -19 14 -6 25 -8 25 -4 0 4 -11 13 -25 19
-14 6 -25 8 -25 4z"/>
<path d="M1072 1593 c2 -10 10 -18 18 -18 8 0 16 8 18 18 2 12 -3 17 -18 17
-15 0 -20 -5 -18 -17z"/>
<path d="M1132 1593 c2 -10 10 -18 18 -18 8 0 16 8 18 18 2 12 -3 17 -18 17
-15 0 -20 -5 -18 -17z"/>
<path d="M2105 1599 c-4 -6 -5 -12 -2 -15 2 -3 7 2 10 11 7 17 1 20 -8 4z"/>
<path d="M290 1589 c11 -7 12 -12 3 -15 -13 -6 -6 -34 8 -34 4 0 5 7 2 17 -5
11 -3 14 6 8 10 -6 11 -3 2 14 -7 11 -17 21 -24 21 -8 0 -7 -4 3 -11z"/>
<path d="M920 1584 c0 -17 22 -14 28 4 2 7 -3 12 -12 12 -9 0 -16 -7 -16 -16z"/>
<path d="M970 1590 c0 -5 9 -10 20 -10 11 0 20 5 20 10 0 6 -9 10 -20 10 -11
0 -20 -4 -20 -10z"/>
<path d="M1200 1590 c0 -5 5 -10 10 -10 6 0 10 5 10 10 0 6 -4 10 -10 10 -5 0
-10 -4 -10 -10z"/>
<path d="M1255 1590 c3 -5 8 -10 11 -10 2 0 4 5 4 10 0 6 -5 10 -11 10 -5 0
-7 -4 -4 -10z"/>
<path d="M1315 1590 c-3 -5 -1 -10 4 -10 6 0 11 5 11 10 0 6 -2 10 -4 10 -3 0
-8 -4 -11 -10z"/>
<path d="M1960 1591 c0 -5 5 -13 10 -16 6 -3 10 -2 10 4 0 5 -4 13 -10 16 -5
3 -10 2 -10 -4z"/>
<path d="M2000 1591 c0 -6 4 -13 10 -16 6 -3 7 1 4 9 -7 18 -14 21 -14 7z"/>
<path d="M111 1559 c-14 -42 -7 -49 9 -9 7 17 10 33 8 36 -3 3 -11 -9 -17 -27z"/>
<path d="M870 1580 c0 -5 4 -10 9 -10 6 0 13 5 16 10 3 6 -1 10 -9 10 -9 0
-16 -4 -16 -10z"/>
<path d="M1620 1581 c0 -5 5 -13 10 -16 6 -3 10 -2 10 4 0 5 -4 13 -10 16 -5
3 -10 2 -10 -4z"/>
<path d="M1945 1563 c8 -18 18 -33 20 -33 10 0 4 16 -16 40 l-20 25 16 -32z"/>
<path d="M2075 1579 c-4 -6 -5 -12 -2 -15 2 -3 7 2 10 11 7 17 1 20 -8 4z"/>
<path d="M2117 1576 c-4 -10 -3 -15 3 -11 6 3 10 1 10 -6 0 -7 3 -10 6 -6 3 3
2 13 -4 22 -8 16 -9 16 -15 1z"/>
<path d="M620 1569 c0 -5 5 -7 10 -4 6 3 10 8 10 11 0 2 -4 4 -10 4 -5 0 -10
-5 -10 -11z"/>
<path d="M2035 1570 c-3 -5 -2 -10 4 -10 5 0 13 5 16 10 3 6 2 10 -4 10 -5 0
-13 -4 -16 -10z"/>
<path d="M137 1547 c-2 -7 -1 -21 4 -32 6 -16 8 -16 8 -3 1 9 5 18 10 20 5 2
3 8 -4 15 -10 9 -14 9 -18 0z"/>
<path d="M917 1554 c-13 -13 -7 -24 14 -24 11 0 19 5 17 12 -5 14 -22 21 -31
12z"/>
<path d="M970 1545 c0 -10 7 -15 18 -13 21 4 19 22 -2 26 -10 2 -16 -3 -16
-13z"/>
<path d="M1020 1544 c0 -9 7 -14 17 -12 25 5 28 28 4 28 -12 0 -21 -6 -21 -16z"/>
<path d="M1193 1548 c2 -7 10 -13 17 -13 7 0 15 6 18 13 2 7 -5 12 -18 12 -13
0 -20 -5 -17 -12z"/>
<path d="M1256 1551 c-4 -5 -2 -12 3 -15 5 -4 12 -2 15 3 4 5 2 12 -3 15 -5 4
-12 2 -15 -3z"/>
<path d="M1595 1550 c3 -5 11 -10 16 -10 6 0 7 5 4 10 -3 6 -11 10 -16 10 -6
0 -7 -4 -4 -10z"/>
<path d="M865 1541 c-6 -11 9 -23 19 -14 9 9 7 23 -3 23 -6 0 -12 -4 -16 -9z"/>
<path d="M1630 1541 c0 -6 5 -13 10 -16 6 -3 10 1 10 9 0 9 -4 16 -10 16 -5 0
-10 -4 -10 -9z"/>
<path d="M346 1523 c-6 -14 -5 -15 5 -6 7 7 10 15 7 18 -3 3 -9 -2 -12 -12z"/>
<path d="M610 1529 c0 -5 5 -7 10 -4 6 3 10 8 10 11 0 2 -4 4 -10 4 -5 0 -10
-5 -10 -11z"/>
<path d="M570 1519 c0 -5 5 -7 10 -4 6 3 10 8 10 11 0 2 -4 4 -10 4 -5 0 -10
-5 -10 -11z"/>
<path d="M1520 1520 c0 -5 5 -10 10 -10 6 0 10 5 10 10 0 6 -4 10 -10 10 -5 0
-10 -4 -10 -10z"/>
<path d="M1197 1514 c-14 -15 -6 -34 14 -34 14 0 19 5 17 17 -3 18 -20 27 -31
17z"/>
<path d="M1565 1510 c3 -5 8 -10 11 -10 2 0 4 5 4 10 0 6 -5 10 -11 10 -5 0
-7 -4 -4 -10z"/>
<path d="M1600 1511 c0 -5 5 -13 10 -16 6 -3 10 -2 10 4 0 5 -4 13 -10 16 -5
3 -10 2 -10 -4z"/>
<path d="M1907 1504 c6 -15 23 -19 23 -5 0 5 -7 11 -14 14 -10 4 -13 1 -9 -9z"/>
<path d="M87 1491 c-4 -17 -3 -21 5 -13 5 5 8 16 6 23 -3 8 -7 3 -11 -10z"/>
<path d="M607 1503 c-4 -3 -7 -11 -7 -17 0 -6 5 -5 12 2 6 6 9 14 7 17 -3 3
-9 2 -12 -2z"/>
<path d="M865 1499 c-10 -15 3 -25 16 -12 7 7 7 13 1 17 -6 3 -14 1 -17 -5z"/>
<path d="M915 1499 c-10 -15 1 -23 20 -15 9 3 13 10 10 16 -8 13 -22 13 -30
-1z"/>
<path d="M967 1504 c-9 -10 2 -24 19 -24 8 0 14 7 14 15 0 15 -21 21 -33 9z"/>
<path d="M1020 1495 c0 -10 7 -15 18 -13 21 4 19 22 -2 26 -10 2 -16 -3 -16
-13z"/>
<path d="M1256 1501 c-4 -5 -2 -12 3 -15 5 -4 12 -2 15 3 4 5 2 12 -3 15 -5 4
-12 2 -15 -3z"/>
<path d="M1320 1496 c0 -9 5 -16 10 -16 6 0 10 4 10 9 0 6 -4 13 -10 16 -5 3
-10 -1 -10 -9z"/>
<path d="M1646 1497 c3 -10 9 -15 12 -12 3 3 0 11 -7 18 -10 9 -11 8 -5 -6z"/>
<path d="M326 1485 c-9 -26 -7 -32 5 -12 6 10 9 21 6 23 -2 3 -7 -2 -11 -11z"/>
<path d="M567 1493 c-4 -3 -7 -11 -7 -17 0 -6 5 -5 12 2 6 6 9 14 7 17 -3 3
-9 2 -12 -2z"/>
<path d="M1680 1485 c0 -8 4 -15 10 -15 5 0 7 7 4 15 -4 8 -8 15 -10 15 -2 0
-4 -7 -4 -15z"/>
<path d="M1530 1480 c0 -5 5 -10 11 -10 5 0 7 5 4 10 -3 6 -8 10 -11 10 -2 0
-4 -4 -4 -10z"/>
<path d="M1940 1479 c0 -5 -4 -7 -10 -4 -5 3 -10 1 -10 -4 0 -16 16 -13 30 4
9 10 9 15 1 15 -6 0 -11 -5 -11 -11z"/>
<path d="M1610 1471 c0 -5 5 -13 10 -16 6 -3 10 -2 10 4 0 5 -4 13 -10 16 -5
3 -10 2 -10 -4z"/>
<path d="M597 1463 c-4 -3 -7 -11 -7 -17 0 -6 5 -5 12 2 6 6 9 14 7 17 -3 3
-9 2 -12 -2z"/>
<path d="M1650 1461 c0 -5 5 -13 10 -16 6 -3 10 -2 10 4 0 5 -4 13 -10 16 -5
3 -10 2 -10 -4z"/>
<path d="M912 1444 c4 -21 22 -23 26 -1 2 10 -3 17 -13 17 -10 0 -15 -6 -13
-16z"/>
<path d="M967 1454 c-9 -10 2 -24 19 -24 8 0 14 7 14 15 0 15 -21 21 -33 9z"/>
<path d="M1027 1453 c-12 -11 -8 -23 8 -23 8 0 15 7 15 15 0 16 -12 20 -23 8z"/>
<path d="M1197 1454 c-9 -10 2 -24 19 -24 8 0 14 7 14 15 0 15 -21 21 -33 9z"/>
<path d="M1325 1450 c-4 -6 -3 -16 3 -22 6 -6 12 -6 17 2 4 6 3 16 -3 22 -6 6
-12 6 -17 -2z"/>
<path d="M1690 1451 c0 -5 5 -13 10 -16 6 -3 10 -2 10 4 0 5 -4 13 -10 16 -5
3 -10 2 -10 -4z"/>
<path d="M303 1435 c-3 -9 -3 -18 -1 -21 3 -3 8 4 11 16 6 23 -1 27 -10 5z"/>
<path d="M527 1443 c-4 -3 -7 -11 -7 -17 0 -6 5 -5 12 2 6 6 9 14 7 17 -3 3
-9 2 -12 -2z"/>
<path d="M760 1435 c-10 -12 -10 -15 4 -15 9 0 16 7 16 15 0 8 -2 15 -4 15 -2
0 -9 -7 -16 -15z"/>
<path d="M810 1435 c0 -9 5 -15 11 -13 6 2 11 8 11 13 0 5 -5 11 -11 13 -6 2
-11 -4 -11 -13z"/>
<path d="M855 1441 c-6 -11 9 -23 19 -14 9 9 7 23 -3 23 -6 0 -12 -4 -16 -9z"/>
<path d="M710 1425 c0 -8 5 -15 10 -15 6 0 10 7 10 15 0 8 -4 15 -10 15 -5 0
-10 -7 -10 -15z"/>
<path d="M61 1414 c0 -11 3 -14 6 -6 3 7 2 16 -1 19 -3 4 -6 -2 -5 -13z"/>
<path d="M655 1420 c-11 -17 5 -32 21 -19 7 6 11 15 8 20 -7 12 -21 11 -29 -1z"/>
<path d="M1956 1414 c-3 -9 -3 -20 0 -26 4 -6 15 -56 25 -112 9 -55 17 -87 18
-71 0 17 -7 64 -15 105 -9 41 -16 85 -16 98 0 26 -4 28 -12 6z"/>
<path d="M1620 1410 c0 -5 5 -10 11 -10 5 0 7 5 4 10 -3 6 -8 10 -11 10 -2 0
-4 -4 -4 -10z"/>
<path d="M1660 1411 c0 -6 5 -13 10 -16 6 -3 10 1 10 9 0 9 -4 16 -10 16 -5 0
-10 -4 -10 -9z"/>
<path d="M516 1401 c-4 -7 -5 -15 -2 -18 9 -9 19 4 14 18 -4 11 -6 11 -12 0z"/>
<path d="M545 1400 c-3 -5 -1 -10 4 -10 6 0 11 5 11 10 0 6 -2 10 -4 10 -3 0
-8 -4 -11 -10z"/>
<path d="M1701 1394 c0 -11 3 -14 6 -6 3 7 2 16 -1 19 -3 4 -6 -2 -5 -13z"/>
<path d="M1730 1398 c0 -9 5 -20 10 -23 13 -8 13 5 0 25 -8 13 -10 13 -10 -2z"/>
<path d="M282 1367 c-7 -19 -12 -40 -12 -48 1 -8 8 6 16 29 9 24 14 46 12 48
-2 2 -10 -11 -16 -29z"/>
<path d="M856 1393 c-11 -11 -6 -23 9 -23 8 0 15 4 15 9 0 13 -16 22 -24 14z"/>
<path d="M904 1389 c-7 -12 15 -31 28 -23 4 3 8 12 8 20 0 17 -26 19 -36 3z"/>
<path d="M967 1393 c-13 -12 -7 -23 13 -23 11 0 20 7 20 15 0 15 -21 21 -33 8z"/>
<path d="M1020 1385 c0 -8 7 -15 15 -15 8 0 15 7 15 15 0 8 -7 15 -15 15 -8 0
-15 -7 -15 -15z"/>
<path d="M1197 1394 c-9 -10 2 -24 19 -24 8 0 14 7 14 15 0 15 -21 21 -33 9z"/>
<path d="M1260 1385 c0 -8 7 -15 15 -15 8 0 15 7 15 15 0 8 -7 15 -15 15 -8 0
-15 -7 -15 -15z"/>
<path d="M1316 1391 c-3 -5 1 -14 8 -20 16 -13 32 2 21 19 -8 12 -22 13 -29 1z"/>
<path d="M313 1344 c-41 -138 -35 -339 13 -484 28 -83 87 -198 113 -218 9 -7
14 -15 12 -19 -8 -12 118 -138 186 -184 40 -27 75 -49 79 -49 4 0 15 -6 23
-14 23 -20 187 -76 219 -75 20 1 22 2 7 6 -64 14 -183 58 -237 89 -210 118
-346 296 -407 529 -26 99 -29 290 -6 380 18 66 15 99 -2 39z"/>
<path d="M1620 1371 c0 -6 5 -13 10 -16 6 -3 10 1 10 9 0 9 -4 16 -10 16 -5 0
-10 -4 -10 -9z"/>
<path d="M112 1358 c-21 -21 -15 -67 12 -79 20 -9 29 -8 50 7 26 19 35 44 15
44 -5 0 -8 -4 -5 -9 3 -5 -6 -16 -20 -26 -24 -16 -28 -16 -42 -1 -14 13 -14
21 -5 46 13 34 12 35 -5 18z"/>
<path d="M167 1363 c-13 -13 -7 -21 13 -16 11 3 17 9 14 14 -6 11 -18 12 -27
2z"/>
<path d="M213 1355 c0 -8 4 -12 9 -9 5 3 6 10 3 15 -9 13 -12 11 -12 -6z"/>
<path d="M1670 1354 c0 -8 5 -12 10 -9 6 4 8 11 5 16 -9 14 -15 11 -15 -7z"/>
<path d="M2021 1352 c-12 -12 -11 -13 8 -7 12 4 21 2 21 -4 0 -6 5 -11 10 -11
16 0 12 14 -8 26 -13 9 -21 8 -31 -4z"/>
<path d="M2136 1358 c3 -5 10 -6 15 -3 13 9 11 12 -6 12 -8 0 -12 -4 -9 -9z"/>
<path d="M506 1351 c-4 -7 -5 -15 -2 -18 9 -9 19 4 14 18 -4 11 -6 11 -12 0z"/>
<path d="M1705 1350 c3 -5 8 -10 11 -10 2 0 4 5 4 10 0 6 -5 10 -11 10 -5 0
-7 -4 -4 -10z"/>
<path d="M1741 1344 c0 -11 3 -14 6 -6 3 7 2 16 -1 19 -3 4 -6 -2 -5 -13z"/>
<path d="M2098 1334 c2 -13 8 -24 13 -24 14 0 10 37 -4 43 -10 4 -13 -2 -9
-19z"/>
<path d="M133 1334 c-3 -8 -1 -20 4 -25 7 -7 11 -2 11 15 0 29 -6 33 -15 10z"/>
<path d="M904 1339 c-10 -17 13 -36 27 -22 12 12 4 33 -11 33 -5 0 -12 -5 -16
-11z"/>
<path d="M964 1339 c-10 -17 13 -36 27 -22 12 12 4 33 -11 33 -5 0 -12 -5 -16
-11z"/>
<path d="M1015 1340 c-8 -14 3 -30 21 -30 8 0 14 9 14 20 0 21 -24 28 -35 10z"/>
<path d="M1196 1341 c-7 -11 18 -33 27 -24 4 3 7 12 7 20 0 15 -26 18 -34 4z"/>
<path d="M1262 1334 c4 -21 22 -23 26 -1 2 10 -3 17 -13 17 -10 0 -15 -6 -13
-16z"/>
<path d="M750 1325 c0 -8 5 -15 10 -15 6 0 10 7 10 15 0 8 -4 15 -10 15 -5 0
-10 -7 -10 -15z"/>
<path d="M807 1333 c-12 -11 -8 -23 8 -23 8 0 15 7 15 15 0 16 -12 20 -23 8z"/>
<path d="M850 1324 c0 -9 5 -14 12 -12 18 6 21 28 4 28 -9 0 -16 -7 -16 -16z"/>
<path d="M1320 1330 c0 -5 7 -10 16 -10 8 0 12 5 9 10 -3 6 -10 10 -16 10 -5
0 -9 -4 -9 -10z"/>
<path d="M2141 1324 c0 -11 3 -14 6 -6 3 7 2 16 -1 19 -3 4 -6 -2 -5 -13z"/>
<path d="M2202 1325 c0 -11 4 -33 8 -50 l8 -30 0 30 c0 17 -3 39 -8 50 l-9 20
1 -20z"/>
<path d="M36 1308 c-3 -13 -5 -41 -5 -63 1 -33 3 -29 9 20 8 63 7 81 -4 43z"/>
<path d="M213 1301 c-9 -24 -8 -31 5 -36 8 -3 17 -3 20 0 3 3 0 5 -7 5 -9 0
-11 9 -6 30 8 38 3 39 -12 1z"/>
<path d="M705 1320 c-3 -5 -1 -10 4 -10 6 0 11 5 11 10 0 6 -2 10 -4 10 -3 0
-8 -4 -11 -10z"/>
<path d="M1590 1314 c0 -8 5 -12 10 -9 6 4 8 11 5 16 -9 14 -15 11 -15 -7z"/>
<path d="M507 1314 c-4 -4 -7 -14 -7 -23 0 -11 3 -12 11 -4 6 6 10 16 7 23 -2
6 -7 8 -11 4z"/>
<path d="M570 1310 c0 -5 5 -10 10 -10 6 0 10 5 10 10 0 6 -4 10 -10 10 -5 0
-10 -4 -10 -10z"/>
<path d="M1630 1310 c0 -5 5 -10 10 -10 6 0 10 5 10 10 0 6 -4 10 -10 10 -5 0
-10 -4 -10 -10z"/>
<path d="M1670 1311 c0 -6 5 -13 10 -16 6 -3 10 1 10 9 0 9 -4 16 -10 16 -5 0
-10 -4 -10 -9z"/>
<path d="M1705 1311 c-3 -5 -1 -12 5 -16 5 -3 10 1 10 9 0 18 -6 21 -15 7z"/>
<path d="M2060 1310 c0 -5 5 -10 10 -10 6 0 10 5 10 10 0 6 -4 10 -10 10 -5 0
-10 -4 -10 -10z"/>
<path d="M530 1299 c0 -5 5 -7 10 -4 6 3 10 8 10 11 0 2 -4 4 -10 4 -5 0 -10
-5 -10 -11z"/>
<path d="M1740 1301 c0 -5 5 -13 10 -16 6 -3 10 -2 10 4 0 5 -4 13 -10 16 -5
3 -10 2 -10 -4z"/>
<path d="M2019 1293 c-8 -9 -9 -14 -2 -10 6 4 14 1 16 -5 3 -7 6 -3 6 10 1 26
-2 27 -20 5z"/>
<path d="M2175 1300 c-3 -5 -1 -10 4 -10 6 0 11 5 11 10 0 6 -2 10 -4 10 -3 0
-8 -4 -11 -10z"/>
<path d="M963 1284 c-6 -17 15 -37 29 -28 13 9 9 32 -7 38 -9 3 -18 -1 -22
-10z"/>
<path d="M1021 1287 c-9 -11 -8 -17 4 -27 12 -10 16 -9 21 5 9 23 -10 40 -25
22z"/>
<path d="M257 1261 c-4 -18 -7 -44 -7 -58 0 -13 -4 -22 -8 -19 -5 3 -4 -11 2
-30 11 -34 11 -32 18 43 8 85 5 118 -5 64z"/>
<path d="M747 1276 c-3 -8 -2 -18 3 -21 13 -8 24 15 12 27 -6 6 -11 4 -15 -6z"/>
<path d="M806 1283 c-11 -11 -6 -23 9 -23 8 0 15 4 15 9 0 13 -16 22 -24 14z"/>
<path d="M850 1276 c0 -9 7 -16 16 -16 17 0 14 22 -4 28 -7 2 -12 -3 -12 -12z"/>
<path d="M902 1273 c2 -10 10 -18 18 -18 8 0 16 8 18 18 2 12 -3 17 -18 17
-15 0 -20 -5 -18 -17z"/>
<path d="M1260 1276 c0 -8 4 -17 9 -20 11 -7 33 18 24 27 -12 12 -33 7 -33 -7z"/>
<path d="M1322 1273 c5 -25 28 -28 28 -4 0 12 -6 21 -16 21 -9 0 -14 -7 -12
-17z"/>
<path d="M1380 1277 c0 -19 16 -31 24 -18 3 5 -1 14 -9 21 -12 10 -15 10 -15
-3z"/>
<path d="M2105 1280 c-3 -5 -12 -7 -20 -3 -16 6 -45 -13 -45 -29 0 -5 7 -2 16
6 17 18 39 22 29 6 -11 -18 -14 -50 -4 -50 5 0 9 11 9 25 0 16 9 29 28 39 18
10 22 15 10 16 -9 0 -19 -4 -23 -10z"/>
<path d="M606 1272 c-4 -4 -15 -7 -23 -7 -9 0 -18 -5 -20 -11 -2 -7 8 -11 28
-10 18 1 34 7 36 13 5 14 -11 25 -21 15z"/>
<path d="M705 1270 c-3 -5 -1 -10 4 -10 6 0 11 5 11 10 0 6 -2 10 -4 10 -3 0
-8 -4 -11 -10z"/>
<path d="M140 1260 l-35 -7 32 -2 c17 0 35 4 38 9 3 6 5 9 3 9 -2 -1 -19 -5
-38 -9z"/>
<path d="M494 1259 c-3 -6 -1 -16 5 -22 8 -8 11 -5 11 11 0 24 -5 28 -16 11z"/>
<path d="M525 1259 c-4 -6 -3 -15 3 -21 6 -6 11 -4 15 6 7 18 -9 31 -18 15z"/>
<path d="M650 1259 c0 -5 5 -7 10 -4 6 3 10 8 10 11 0 2 -4 4 -10 4 -5 0 -10
-5 -10 -11z"/>
<path d="M1590 1260 c0 -5 5 -10 10 -10 6 0 10 5 10 10 0 6 -4 10 -10 10 -5 0
-10 -4 -10 -10z"/>
<path d="M1630 1260 c0 -5 5 -10 10 -10 6 0 10 5 10 10 0 6 -4 10 -10 10 -5 0
-10 -4 -10 -10z"/>
<path d="M1680 1254 c0 -8 5 -12 10 -9 6 4 8 11 5 16 -9 14 -15 11 -15 -7z"/>
<path d="M1710 1261 c0 -6 5 -13 10 -16 6 -3 10 1 10 9 0 9 -4 16 -10 16 -5 0
-10 -4 -10 -9z"/>
<path d="M1745 1261 c-3 -5 -1 -12 5 -16 5 -3 10 1 10 9 0 18 -6 21 -15 7z"/>
<path d="M466 1251 c-4 -7 -5 -15 -2 -18 9 -9 19 4 14 18 -4 11 -6 11 -12 0z"/>
<path d="M1953 1135 c0 -101 -5 -149 -22 -215 -41 -155 -137 -312 -254 -415
-28 -24 -48 -47 -45 -51 4 -3 40 27 80 68 171 170 261 387 257 620 -3 125 -15
120 -16 -7z"/>
<path d="M2112 1228 c-10 -36 1 -51 31 -42 21 7 23 -14 2 -22 -8 -4 -15 -15
-15 -25 0 -10 7 -19 15 -19 8 0 15 -5 15 -11 0 -7 -10 -9 -27 -4 -53 14 -58
12 -61 -27 -2 -21 1 -38 6 -38 6 0 8 10 5 23 -4 18 -3 19 6 7 6 -8 11 -10 11
-4 0 5 -5 15 -12 22 -16 16 -7 22 20 15 17 -4 21 -11 17 -24 -4 -11 -2 -19 4
-19 6 0 11 7 11 15 0 35 19 12 23 -27 2 -25 4 -15 3 22 -1 50 -4 64 -15 62
-11 -2 -10 2 3 22 18 29 21 74 5 96 -8 12 -9 10 -4 -8 6 -22 -8 -52 -25 -52
-4 0 -7 11 -7 25 0 13 3 22 8 19 5 -3 6 2 3 10 -9 23 -12 20 -22 -16z"/>
<path d="M89 1233 c7 -14 8 -24 1 -28 -5 -3 -10 -12 -10 -18 0 -9 3 -8 8 1 5
7 17 10 28 6 16 -5 16 -4 4 5 -8 6 -10 11 -5 12 30 5 51 3 57 -6 4 -6 8 -2 8
8 0 13 -8 17 -38 17 -21 0 -44 6 -51 13 -11 10 -11 8 -2 -10z"/>
<path d="M200 1218 c0 -28 -20 -41 -47 -31 -10 3 -14 2 -10 -3 4 -4 23 -9 40
-9 30 -1 33 1 31 27 -3 37 -14 50 -14 16z"/>
<path d="M646 1223 c-12 -12 -6 -33 9 -33 8 0 15 6 15 14 0 17 -14 28 -24 19z"/>
<path d="M690 1210 c0 -11 7 -20 15 -20 8 0 15 9 15 20 0 11 -7 20 -15 20 -8
0 -15 -9 -15 -20z"/>
<path d="M740 1210 c0 -15 5 -20 18 -18 9 2 17 10 17 18 0 8 -8 16 -17 18 -13
2 -18 -3 -18 -18z"/>
<path d="M794 1219 c-3 -6 -2 -15 4 -21 13 -13 32 -2 32 18 0 16 -26 19 -36 3z"/>
<path d="M844 1219 c-3 -6 -2 -15 4 -21 13 -13 32 -2 32 18 0 16 -26 19 -36 3z"/>
<path d="M962 1213 c2 -10 10 -18 18 -18 8 0 16 8 18 18 2 12 -3 17 -18 17
-15 0 -20 -5 -18 -17z"/>
<path d="M1267 1223 c-12 -11 -8 -23 8 -23 8 0 15 7 15 15 0 16 -12 20 -23 8z"/>
<path d="M1320 1215 c0 -10 7 -15 18 -13 21 4 19 22 -2 26 -10 2 -16 -3 -16
-13z"/>
<path d="M1376 1221 c-7 -11 18 -33 27 -24 4 3 7 12 7 20 0 15 -26 18 -34 4z"/>
<path d="M597 1214 c-8 -8 1 -24 14 -24 5 0 9 7 9 15 0 15 -12 20 -23 9z"/>
<path d="M910 1210 c0 -5 5 -10 10 -10 6 0 10 5 10 10 0 6 -4 10 -10 10 -5 0
-10 -4 -10 -10z"/>
<path d="M1440 1210 c0 -5 5 -10 10 -10 6 0 10 5 10 10 0 6 -4 10 -10 10 -5 0
-10 -4 -10 -10z"/>
<path d="M1590 1210 c0 -5 5 -10 10 -10 6 0 10 5 10 10 0 6 -4 10 -10 10 -5 0
-10 -4 -10 -10z"/>
<path d="M1630 1211 c0 -6 5 -13 10 -16 6 -3 10 1 10 9 0 9 -4 16 -10 16 -5 0
-10 -4 -10 -9z"/>
<path d="M1681 1204 c0 -11 3 -14 6 -6 3 7 2 16 -1 19 -3 4 -6 -2 -5 -13z"/>
<path d="M1710 1211 c0 -6 5 -13 10 -16 6 -3 10 1 10 9 0 9 -4 16 -10 16 -5 0
-10 -4 -10 -9z"/>
<path d="M1751 1204 c0 -11 3 -14 6 -6 3 7 2 16 -1 19 -3 4 -6 -2 -5 -13z"/>
<path d="M460 1194 c0 -8 5 -12 10 -9 6 3 10 10 10 16 0 5 -4 9 -10 9 -5 0
-10 -7 -10 -16z"/>
<path d="M490 1200 c0 -5 5 -10 10 -10 6 0 10 5 10 10 0 6 -4 10 -10 10 -5 0
-10 -4 -10 -10z"/>
<path d="M2058 1188 c9 -9 8 -16 -6 -32 -16 -20 -16 -20 8 0 14 12 31 19 38
17 6 -3 12 -2 12 0 0 3 -15 10 -32 16 -26 9 -30 9 -20 -1z"/>
<path d="M2030 1170 c-9 -6 -10 -10 -3 -10 6 0 15 5 18 10 8 12 4 12 -15 0z"/>
<path d="M106 1155 c4 -8 8 -15 10 -15 2 0 4 7 4 15 0 8 -4 15 -10 15 -5 0 -7
-7 -4 -15z"/>
<path d="M460 1150 c0 -19 3 -21 12 -12 9 9 9 15 0 24 -9 9 -12 7 -12 -12z"/>
<path d="M904 1159 c-10 -17 13 -36 27 -22 12 12 4 33 -11 33 -5 0 -12 -5 -16
-11z"/>
<path d="M960 1155 c0 -10 7 -15 18 -13 21 4 19 22 -2 26 -10 2 -16 -3 -16
-13z"/>
<path d="M1382 1156 c1 -10 8 -17 13 -17 15 1 12 24 -3 29 -9 3 -13 -2 -10
-12z"/>
<path d="M1635 1161 c-3 -5 -1 -12 5 -16 5 -3 10 1 10 9 0 18 -6 21 -15 7z"/>
<path d="M1680 1156 c0 -9 5 -16 10 -16 6 0 10 4 10 9 0 6 -4 13 -10 16 -5 3
-10 -1 -10 -9z"/>
<path d="M1715 1161 c-3 -5 -1 -12 5 -16 5 -3 10 1 10 9 0 18 -6 21 -15 7z"/>
<path d="M1750 1154 c0 -8 5 -12 10 -9 6 4 8 11 5 16 -9 14 -15 11 -15 -7z"/>
<path d="M211 1138 c-7 -12 -16 -17 -20 -12 -3 6 -20 5 -41 -3 -26 -9 -29 -12
-13 -12 38 -1 35 -20 -4 -24 l-38 -4 43 -1 c40 -2 43 0 37 20 -6 16 -4 20 7
16 15 -6 63 28 50 36 -4 2 -14 -5 -21 -16z"/>
<path d="M490 1150 c0 -5 5 -10 11 -10 5 0 7 5 4 10 -3 6 -8 10 -11 10 -2 0
-4 -4 -4 -10z"/>
<path d="M1262 1148 c6 -18 28 -21 28 -4 0 9 -7 16 -16 16 -9 0 -14 -5 -12
-12z"/>
<path d="M1322 1148 c6 -18 28 -21 28 -4 0 9 -7 16 -16 16 -9 0 -14 -5 -12
-12z"/>
<path d="M1440 1150 c0 -5 5 -10 10 -10 6 0 10 5 10 10 0 6 -4 10 -10 10 -5 0
-10 -4 -10 -10z"/>
<path d="M645 1140 c3 -5 8 -10 11 -10 2 0 4 5 4 10 0 6 -5 10 -11 10 -5 0 -7
-4 -4 -10z"/>
<path d="M695 1140 c3 -5 8 -10 11 -10 2 0 4 5 4 10 0 6 -5 10 -11 10 -5 0 -7
-4 -4 -10z"/>
<path d="M800 1139 c0 -5 5 -7 10 -4 6 3 10 8 10 11 0 2 -4 4 -10 4 -5 0 -10
-5 -10 -11z"/>
<path d="M855 1140 c3 -5 8 -10 11 -10 2 0 4 5 4 10 0 6 -5 10 -11 10 -5 0 -7
-4 -4 -10z"/>
<path d="M80 1121 c0 -10 19 -25 25 -20 1 2 -3 10 -11 17 -8 7 -14 8 -14 3z"/>
<path d="M460 1101 c0 -25 6 -27 13 -6 4 8 2 17 -3 20 -6 4 -10 -3 -10 -14z"/>
<path d="M904 1109 c-10 -17 13 -36 27 -22 12 12 4 33 -11 33 -5 0 -12 -5 -16
-11z"/>
<path d="M964 1109 c-10 -17 13 -36 27 -22 12 12 4 33 -11 33 -5 0 -12 -5 -16
-11z"/>
<path d="M1434 1109 c-10 -17 13 -36 27 -22 12 12 4 33 -11 33 -5 0 -12 -5
-16 -11z"/>
<path d="M1601 1104 c0 -11 3 -14 6 -6 3 7 2 16 -1 19 -3 4 -6 -2 -5 -13z"/>
<path d="M1635 1111 c-3 -5 -1 -12 5 -16 5 -3 10 1 10 9 0 18 -6 21 -15 7z"/>
<path d="M1680 1110 c0 -5 5 -10 11 -10 5 0 7 5 4 10 -3 6 -8 10 -11 10 -2 0
-4 -4 -4 -10z"/>
<path d="M1710 1110 c0 -5 5 -10 10 -10 6 0 10 5 10 10 0 6 -4 10 -10 10 -5 0
-10 -4 -10 -10z"/>
<path d="M1750 1110 c0 -5 5 -10 11 -10 5 0 7 5 4 10 -3 6 -8 10 -11 10 -2 0
-4 -4 -4 -10z"/>
<path d="M2031 1104 c0 -11 3 -14 6 -6 3 7 2 16 -1 19 -3 4 -6 -2 -5 -13z"/>
<path d="M490 1100 c0 -5 5 -10 11 -10 5 0 7 5 4 10 -3 6 -8 10 -11 10 -2 0
-4 -4 -4 -10z"/>
<path d="M800 1100 c0 -5 5 -10 10 -10 6 0 10 5 10 10 0 6 -4 10 -10 10 -5 0
-10 -4 -10 -10z"/>
<path d="M850 1095 c0 -9 5 -15 11 -13 6 2 11 8 11 13 0 5 -5 11 -11 13 -6 2
-11 -4 -11 -13z"/>
<path d="M1262 1098 c6 -18 28 -21 28 -4 0 9 -7 16 -16 16 -9 0 -14 -5 -12
-12z"/>
<path d="M1322 1098 c6 -18 28 -21 28 -4 0 9 -7 16 -16 16 -9 0 -14 -5 -12
-12z"/>
<path d="M1380 1094 c0 -17 22 -14 28 4 2 7 -3 12 -12 12 -9 0 -16 -7 -16 -16z"/>
<path d="M246 1068 c4 -26 3 -38 -5 -38 -7 0 -9 -4 -6 -10 4 -6 -1 -7 -12 -4
-16 5 -16 4 1 -10 17 -14 18 -16 3 -16 -11 0 -17 -8 -16 -22 0 -16 2 -18 6 -8
4 8 12 20 20 25 19 14 28 79 14 101 -9 16 -10 12 -5 -18z"/>
<path d="M1636 1071 c-4 -7 -5 -15 -2 -18 9 -9 19 4 14 18 -4 11 -6 11 -12 0z"/>
<path d="M1681 1064 c0 -11 3 -14 6 -6 3 7 2 16 -1 19 -3 4 -6 -2 -5 -13z"/>
<path d="M1710 1071 c0 -6 5 -13 10 -16 6 -3 10 1 10 9 0 9 -4 16 -10 16 -5 0
-10 -4 -10 -9z"/>
<path d="M1751 1064 c0 -11 3 -14 6 -6 3 7 2 16 -1 19 -3 4 -6 -2 -5 -13z"/>
<path d="M1992 1055 c0 -16 2 -22 5 -12 2 9 2 23 0 30 -3 6 -5 -1 -5 -18z"/>
<path d="M460 1056 c0 -9 5 -16 10 -16 6 0 10 4 10 9 0 6 -4 13 -10 16 -5 3
-10 -1 -10 -9z"/>
<path d="M2034 1056 c-8 -9 -7 -15 3 -25 8 -7 12 -20 8 -30 -5 -13 -4 -14 6
-3 7 6 22 12 32 12 18 0 17 -2 -3 -18 -14 -12 -20 -24 -15 -31 5 -9 11 -6 19
11 15 30 46 35 64 12 9 -13 13 -14 10 -4 -6 20 -46 40 -80 40 -21 0 -27 5 -30
24 -2 18 -6 21 -14 12z"/>
<path d="M153 1053 c26 -7 20 -21 -10 -26 -17 -2 -11 -4 17 -5 25 0 39 2 33 5
-7 2 -13 11 -13 19 0 8 -9 14 -22 13 -17 -1 -19 -2 -5 -6z"/>
<path d="M200 1051 c0 -6 4 -12 8 -15 5 -3 9 1 9 9 0 8 -4 15 -9 15 -4 0 -8
-4 -8 -9z"/>
<path d="M1266 1053 c-11 -11 -6 -23 9 -23 8 0 15 4 15 9 0 13 -16 22 -24 14z"/>
<path d="M1326 1053 c-11 -11 -6 -23 9 -23 8 0 15 4 15 9 0 13 -16 22 -24 14z"/>
<path d="M1435 1050 c-11 -17 5 -32 21 -19 7 6 11 15 8 20 -7 12 -21 11 -29
-1z"/>
<path d="M742 1039 c2 -6 8 -10 13 -10 5 0 11 4 13 10 2 6 -4 11 -13 11 -9 0
-15 -5 -13 -11z"/>
<path d="M800 1035 c0 -8 5 -15 10 -15 6 0 10 7 10 15 0 8 -4 15 -10 15 -5 0
-10 -7 -10 -15z"/>
<path d="M850 1035 c0 -9 5 -15 11 -13 6 2 11 8 11 13 0 5 -5 11 -11 13 -6 2
-11 -4 -11 -13z"/>
<path d="M900 1034 c0 -9 7 -14 17 -12 25 5 28 28 4 28 -12 0 -21 -6 -21 -16z"/>
<path d="M960 1035 c0 -8 9 -15 20 -15 11 0 20 7 20 15 0 8 -9 15 -20 15 -11
0 -20 -7 -20 -15z"/>
<path d="M1380 1040 c0 -5 5 -10 10 -10 6 0 10 5 10 10 0 6 -4 10 -10 10 -5 0
-10 -4 -10 -10z"/>
<path d="M31 999 c0 -24 5 -53 10 -64 6 -13 7 0 3 40 -8 73 -14 85 -13 24z"/>
<path d="M1676 1022 c-3 -6 -1 -14 5 -17 15 -10 25 3 12 16 -7 7 -13 7 -17 1z"/>
<path d="M85 1010 c-3 -5 -1 -10 4 -10 6 0 11 5 11 10 0 6 -2 10 -4 10 -3 0
-8 -4 -11 -10z"/>
<path d="M460 1011 c0 -6 5 -13 10 -16 6 -3 10 1 10 9 0 9 -4 16 -10 16 -5 0
-10 -4 -10 -9z"/>
<path d="M497 1013 c-3 -5 -2 -15 2 -22 5 -7 11 -9 14 -4 3 5 2 15 -2 22 -5 7
-11 9 -14 4z"/>
<path d="M1630 1005 c0 -8 5 -15 10 -15 6 0 10 7 10 15 0 8 -4 15 -10 15 -5 0
-10 -7 -10 -15z"/>
<path d="M1710 1010 c0 -5 5 -10 10 -10 6 0 10 5 10 10 0 6 -4 10 -10 10 -5 0
-10 -4 -10 -10z"/>
<path d="M2213 985 c0 -22 2 -30 4 -17 2 12 2 30 0 40 -3 9 -5 -1 -4 -23z"/>
<path d="M262 980 c0 -19 2 -27 5 -17 2 9 2 25 0 35 -3 9 -5 1 -5 -18z"/>
<path d="M1595 1000 c3 -5 8 -10 11 -10 2 0 4 5 4 10 0 6 -5 10 -11 10 -5 0
-7 -4 -4 -10z"/>
<path d="M167 980 c8 -30 21 -33 19 -5 0 14 -6 25 -13 25 -6 0 -9 -9 -6 -20z"/>
<path d="M797 994 c-9 -10 2 -24 19 -24 8 0 14 7 14 15 0 15 -21 21 -33 9z"/>
<path d="M846 991 c-7 -11 18 -33 27 -24 4 3 7 12 7 20 0 15 -26 18 -34 4z"/>
<path d="M904 989 c-8 -14 18 -31 30 -19 9 9 0 30 -14 30 -5 0 -12 -5 -16 -11z"/>
<path d="M964 989 c-10 -17 13 -36 27 -22 12 12 4 33 -11 33 -5 0 -12 -5 -16
-11z"/>
<path d="M1326 991 c-4 -5 -2 -12 3 -15 5 -4 12 -2 15 3 4 5 2 12 -3 15 -5 4
-12 2 -15 -3z"/>
<path d="M1380 985 c0 -9 5 -15 11 -13 6 2 11 8 11 13 0 5 -5 11 -11 13 -6 2
-11 -4 -11 -13z"/>
<path d="M1440 990 c0 -5 5 -10 10 -10 6 0 10 5 10 10 0 6 -4 10 -10 10 -5 0
-10 -4 -10 -10z"/>
<path d="M1976 954 c-3 -26 -4 -49 -2 -52 3 -2 8 17 11 43 4 25 5 48 3 51 -3
2 -8 -17 -12 -42z"/>
<path d="M87 975 c-4 -8 -2 -17 3 -20 6 -4 10 3 10 14 0 25 -6 27 -13 6z"/>
<path d="M120 970 c0 -11 5 -20 12 -20 6 0 3 -7 -8 -15 -10 -8 -14 -15 -8 -15
17 0 34 23 34 47 0 14 -6 23 -15 23 -8 0 -15 -9 -15 -20z"/>
<path d="M650 980 c0 -5 5 -10 11 -10 5 0 7 5 4 10 -3 6 -8 10 -11 10 -2 0 -4
-4 -4 -10z"/>
<path d="M1775 980 c-3 -5 -1 -10 4 -10 6 0 11 5 11 10 0 6 -2 10 -4 10 -3 0
-8 -4 -11 -10z"/>
<path d="M2010 980 c0 -6 5 -8 11 -4 8 5 10 -3 7 -24 -2 -17 -1 -29 3 -27 10
7 99 -25 99 -35 0 -5 -6 -11 -12 -13 -10 -4 -10 -6 0 -6 7 -1 15 6 18 14 4 8
10 12 16 9 5 -3 4 3 -3 14 -7 12 -19 17 -31 14 -22 -5 -25 13 -3 22 16 6 21
36 5 36 -5 0 -6 -7 -3 -17 4 -10 2 -14 -4 -10 -6 4 -14 0 -17 -9 -9 -24 -49
-13 -56 15 -6 25 -30 42 -30 21z"/>
<path d="M1631 966 c-8 -10 -9 -16 -1 -21 5 -3 13 1 16 10 9 22 -1 29 -15 11z"/>
<path d="M1740 969 c0 -5 5 -7 10 -4 6 3 10 8 10 11 0 2 -4 4 -10 4 -5 0 -10
-5 -10 -11z"/>
<path d="M235 959 c-4 -6 -5 -12 -2 -15 2 -3 7 2 10 11 7 17 1 20 -8 4z"/>
<path d="M470 960 c0 -5 5 -10 11 -10 5 0 7 5 4 10 -3 6 -8 10 -11 10 -2 0 -4
-4 -4 -10z"/>
<path d="M530 951 c0 -6 5 -13 10 -16 6 -3 10 1 10 9 0 9 -4 16 -10 16 -5 0
-10 -4 -10 -9z"/>
<path d="M744 949 c-8 -14 11 -33 25 -25 6 4 11 11 11 16 0 13 -29 20 -36 9z"/>
<path d="M1540 945 c0 -8 5 -15 10 -15 6 0 10 7 10 15 0 8 -4 15 -10 15 -5 0
-10 -7 -10 -15z"/>
<path d="M1590 950 c0 -5 5 -10 10 -10 6 0 10 5 10 10 0 6 -4 10 -10 10 -5 0
-10 -4 -10 -10z"/>
<path d="M800 935 c0 -8 7 -15 15 -15 8 0 15 7 15 15 0 8 -7 15 -15 15 -8 0
-15 -7 -15 -15z"/>
<path d="M852 934 c4 -21 22 -23 26 -1 2 10 -3 17 -13 17 -10 0 -15 -6 -13
-16z"/>
<path d="M904 939 c-8 -14 18 -31 30 -19 9 9 0 30 -14 30 -5 0 -12 -5 -16 -11z"/>
<path d="M1380 935 c0 -8 5 -15 10 -15 6 0 10 7 10 15 0 8 -4 15 -10 15 -5 0
-10 -7 -10 -15z"/>
<path d="M1436 941 c-4 -5 -2 -12 3 -15 5 -4 12 -2 15 3 4 5 2 12 -3 15 -5 4
-12 2 -15 -3z"/>
<path d="M1490 940 c0 -5 5 -10 11 -10 5 0 7 5 4 10 -3 6 -8 10 -11 10 -2 0
-4 -4 -4 -10z"/>
<path d="M197 933 c-12 -12 -7 -22 13 -28 26 -8 25 -22 -2 -31 -21 -6 -21 -7
5 -21 15 -7 27 -18 27 -23 0 -14 -14 -12 -28 2 -9 9 -16 7 -32 -7 -11 -10 -20
-22 -20 -27 0 -9 41 0 50 11 3 3 12 6 20 6 24 0 24 32 0 40 -20 6 -21 7 -3 21
17 13 17 15 -6 33 -18 14 -21 20 -10 24 8 3 9 6 3 6 -6 1 -14 -2 -17 -6z m3
-112 c0 -5 -7 -12 -16 -15 -14 -5 -15 -4 -4 9 14 17 20 19 20 6z"/>
<path d="M476 915 c4 -8 8 -15 10 -15 2 0 4 7 4 15 0 8 -4 15 -10 15 -5 0 -7
-7 -4 -15z"/>
<path d="M1735 920 c-3 -5 -1 -10 4 -10 6 0 11 5 11 10 0 6 -2 10 -4 10 -3 0
-8 -4 -11 -10z"/>
<path d="M163 913 c5 -8 -3 -15 -25 -22 -18 -5 -24 -9 -13 -9 11 0 31 3 44 7
23 6 23 7 5 21 -10 8 -15 10 -11 3z"/>
<path d="M2196 894 c-4 -14 -5 -28 -3 -31 3 -2 8 8 11 23 4 14 5 28 3 31 -3 2
-8 -8 -11 -23z"/>
<path d="M540 900 c0 -5 5 -10 11 -10 5 0 7 5 4 10 -3 6 -8 10 -11 10 -2 0 -4
-4 -4 -10z"/>
<path d="M575 901 c-3 -5 -1 -12 5 -16 5 -3 10 1 10 9 0 18 -6 21 -15 7z"/>
<path d="M1585 899 c-10 -15 3 -25 16 -12 7 7 7 13 1 17 -6 3 -14 1 -17 -5z"/>
<path d="M1620 900 c0 -5 5 -10 10 -10 6 0 10 5 10 10 0 6 -4 10 -10 10 -5 0
-10 -4 -10 -10z"/>
<path d="M606 885 c4 -8 10 -15 15 -15 5 0 9 7 9 15 0 8 -7 15 -15 15 -9 0
-12 -6 -9 -15z"/>
<path d="M1435 891 c-3 -5 -1 -12 5 -16 5 -3 10 1 10 9 0 18 -6 21 -15 7z"/>
<path d="M1480 885 c0 -9 5 -15 11 -13 6 2 11 8 11 13 0 5 -5 11 -11 13 -6 2
-11 -4 -11 -13z"/>
<path d="M1530 890 c0 -5 7 -10 15 -10 8 0 15 5 15 10 0 6 -7 10 -15 10 -8 0
-15 -4 -15 -10z"/>
<path d="M2018 880 c-20 -23 -12 -26 16 -5 13 10 25 11 42 5 15 -6 24 -6 24 0
0 6 -6 10 -12 10 -7 0 -22 3 -33 6 -13 3 -26 -3 -37 -16z"/>
<path d="M51 874 c0 -11 3 -14 6 -6 3 7 2 16 -1 19 -3 4 -6 -2 -5 -13z"/>
<path d="M480 881 c0 -5 5 -13 10 -16 6 -3 10 -2 10 4 0 5 -4 13 -10 16 -5 3
-10 2 -10 -4z"/>
<path d="M702 878 c6 -18 28 -21 28 -4 0 9 -7 16 -16 16 -9 0 -14 -5 -12 -12z"/>
<path d="M752 874 c4 -21 22 -23 26 -1 2 10 -3 17 -13 17 -10 0 -15 -6 -13
-16z"/>
<path d="M805 880 c-7 -12 2 -30 16 -30 12 0 12 27 0 35 -5 3 -12 1 -16 -5z"/>
<path d="M1955 870 c-4 -12 -5 -24 -2 -27 3 -2 8 5 12 17 4 12 5 24 2 27 -3 2
-8 -5 -12 -17z"/>
<path d="M280 871 c0 -5 5 -13 10 -16 6 -3 10 -2 10 4 0 5 -4 13 -10 16 -5 3
-10 2 -10 -4z"/>
<path d="M852 868 c5 -15 28 -18 29 -3 0 6 -7 12 -17 13 -10 3 -15 -1 -12 -10z"/>
<path d="M114 850 c0 -11 5 -16 15 -12 10 4 12 1 6 -8 -5 -8 -3 -11 6 -8 8 3
13 11 11 17 -1 7 2 10 7 7 5 -4 13 -1 16 5 5 7 -1 10 -16 8 -13 -2 -29 0 -34
3 -6 4 -11 -2 -11 -12z"/>
<path d="M610 851 c0 -6 5 -13 10 -16 6 -3 10 1 10 9 0 9 -4 16 -10 16 -5 0
-10 -4 -10 -9z"/>
<path d="M1620 849 c0 -5 5 -7 10 -4 6 3 10 8 10 11 0 2 -4 4 -10 4 -5 0 -10
-5 -10 -11z"/>
<path d="M2036 843 c-7 -18 9 -33 35 -33 21 0 31 24 16 39 -16 16 -44 13 -51
-6z m43 -2 c9 -6 10 -10 2 -16 -16 -9 -44 2 -36 15 8 12 16 12 34 1z"/>
<path d="M660 840 c0 -5 5 -10 11 -10 5 0 7 5 4 10 -3 6 -8 10 -11 10 -2 0 -4
-4 -4 -10z"/>
<path d="M1530 835 c0 -8 5 -15 10 -15 6 0 10 7 10 15 0 8 -4 15 -10 15 -5 0
-10 -7 -10 -15z"/>
<path d="M1580 840 c0 -5 5 -10 10 -10 6 0 10 5 10 10 0 6 -4 10 -10 10 -5 0
-10 -4 -10 -10z"/>
<path d="M1987 818 c-11 -20 -13 -27 -4 -20 8 7 17 9 20 5 4 -3 7 6 7 20 0 15
-1 27 -2 27 -2 0 -11 -14 -21 -32z"/>
<path d="M61 830 c0 -8 3 -21 8 -28 7 -11 9 -10 14 3 4 9 3 13 -2 10 -5 -3
-12 3 -14 12 -3 13 -5 14 -6 3z"/>
<path d="M300 826 c0 -8 4 -17 9 -20 5 -4 7 3 4 14 -6 23 -13 26 -13 6z"/>
<path d="M495 830 c3 -5 8 -10 11 -10 2 0 4 5 4 10 0 6 -5 10 -11 10 -5 0 -7
-4 -4 -10z"/>
<path d="M1927 790 c-8 -22 -11 -38 -6 -35 5 4 9 1 9 -5 0 -6 5 -8 11 -4 8 5
8 8 0 14 -9 5 -9 14 -1 35 6 15 9 29 7 31 -2 3 -11 -14 -20 -36z"/>
<path d="M2120 821 c0 -10 19 -25 25 -20 1 2 -3 10 -11 17 -8 7 -14 8 -14 3z"/>
<path d="M2180 821 c0 -7 -4 -9 -10 -6 -6 4 -7 -1 -3 -11 6 -15 7 -15 15 1 6
9 7 19 4 22 -3 4 -6 1 -6 -6z"/>
<path d="M590 805 c7 -9 15 -13 17 -11 7 7 -7 26 -19 26 -6 0 -6 -6 2 -15z"/>
<path d="M1610 804 c0 -14 3 -14 15 -4 8 7 15 14 15 16 0 2 -7 4 -15 4 -8 0
-15 -7 -15 -16z"/>
<path d="M110 794 c0 -6 6 -17 14 -23 11 -9 15 -8 20 4 4 10 2 14 -5 9 -6 -4
-15 0 -20 7 -5 8 -9 9 -9 3z"/>
<path d="M220 778 c0 -7 4 -19 9 -27 11 -17 23 1 15 23 -7 19 -24 21 -24 4z"/>
<path d="M261 788 c-1 -4 4 -18 10 -31 8 -17 8 -30 0 -44 -9 -18 -7 -20 12
-18 40 4 42 5 28 14 -7 5 -21 26 -31 47 -10 22 -19 36 -19 32z"/>
<path d="M316 781 c-3 -5 1 -11 9 -14 9 -4 12 -1 8 9 -6 16 -10 17 -17 5z"/>
<path d="M560 781 c0 -5 5 -13 10 -16 6 -3 10 -2 10 4 0 5 -4 13 -10 16 -5 3
-10 2 -10 -4z"/>
<path d="M940 775 c-17 -20 -5 -45 28 -60 12 -5 22 -13 22 -17 0 -14 -23 -9
-42 9 -15 13 -18 14 -18 2 0 -24 22 -39 56 -39 64 0 69 49 8 80 -23 11 -25 15
-11 18 10 2 25 -2 34 -9 13 -11 15 -11 12 6 -5 27 -70 33 -89 10z"/>
<path d="M1065 730 c0 -59 0 -60 28 -60 24 0 27 3 22 20 -3 11 -3 20 2 20 4 0
14 -9 21 -20 8 -13 23 -20 44 -20 l32 0 -33 34 c-34 35 -37 66 -6 66 8 0 15 5
15 10 0 6 -13 10 -30 10 -16 0 -29 -3 -29 -7 3 -19 -2 -33 -12 -33 -6 0 -9 9
-6 20 4 16 0 20 -21 20 -26 0 -27 -2 -27 -60z"/>
<path d="M1235 730 l0 -60 42 0 c32 0 45 5 53 20 7 14 7 20 0 20 -5 0 -10 -4
-10 -10 0 -5 -10 -10 -21 -10 -20 0 -21 4 -17 50 5 48 4 50 -21 50 -25 0 -26
-2 -26 -60z"/>
<path d="M2063 783 c9 -2 14 -9 11 -15 -4 -7 -2 -8 5 -4 15 10 4 26 -17 25
-15 -1 -15 -2 1 -6z"/>
<path d="M2144 775 c-4 -9 -4 -19 0 -22 3 -4 6 2 6 13 0 16 2 17 10 4 6 -9 10
-10 10 -3 0 19 -20 26 -26 8z"/>
<path d="M185 768 c-9 -22 4 -43 17 -30 7 7 7 16 0 29 -10 17 -11 17 -17 1z"/>
<path d="M1640 764 c0 -8 5 -12 10 -9 6 3 10 10 10 16 0 5 -4 9 -10 9 -5 0
-10 -7 -10 -16z"/>
<path d="M1970 754 c-11 -29 -6 -44 16 -44 12 0 13 4 4 21 -7 11 -9 27 -6 35
3 8 3 14 0 14 -2 0 -9 -12 -14 -26z"/>
<path d="M2047 763 c-4 -3 -7 -13 -7 -22 1 -13 3 -13 11 2 11 19 8 33 -4 20z"/>
<path d="M1695 750 c-3 -5 -1 -10 4 -10 6 0 11 5 11 10 0 6 -2 10 -4 10 -3 0
-8 -4 -11 -10z"/>
<path d="M2008 744 c11 -22 41 -50 45 -43 2 2 -10 18 -26 34 -20 21 -26 24
-19 9z"/>
<path d="M90 745 c0 -5 5 -17 10 -25 5 -8 10 -10 10 -5 0 6 -5 17 -10 25 -5 8
-10 11 -10 5z"/>
<path d="M135 730 c3 -5 8 -10 11 -10 2 0 4 5 4 10 0 6 -5 10 -11 10 -5 0 -7
-4 -4 -10z"/>
<path d="M245 731 c-3 -6 -11 -9 -16 -6 -5 4 -9 1 -9 -4 0 -6 6 -11 14 -11 16
0 31 18 23 26 -3 3 -8 0 -12 -5z"/>
<path d="M337 726 c-4 -10 -1 -13 8 -9 8 3 12 9 9 14 -7 12 -11 11 -17 -5z"/>
<path d="M1883 699 c-12 -21 -17 -37 -12 -33 11 6 42 64 37 69 -2 2 -13 -14
-25 -36z"/>
<path d="M2140 714 c-6 -16 -18 -42 -26 -58 -8 -16 -12 -31 -10 -33 2 -2 15
22 30 53 15 31 25 59 22 62 -3 2 -10 -8 -16 -24z"/>
<path d="M1943 705 c0 -8 4 -12 9 -9 5 3 6 10 3 15 -9 13 -12 11 -12 -6z"/>
<path d="M174 695 c-16 -13 -16 -14 -1 -9 13 5 17 1 18 -17 0 -16 3 -19 6 -9
3 8 11 18 17 22 7 5 4 8 -7 8 -10 0 -15 5 -12 10 9 14 2 12 -21 -5z"/>
<path d="M364 672 c-1 -15 1 -21 3 -14 3 9 15 -1 31 -25 15 -21 27 -41 27 -45
0 -5 3 -8 8 -8 4 0 6 3 5 8 -1 6 -69 112 -72 112 -1 0 -2 -12 -2 -28z"/>
<path d="M336 673 c-6 -14 -5 -15 5 -6 7 7 10 15 7 18 -3 3 -9 -2 -12 -12z"/>
<path d="M1977 683 c-9 -8 12 -33 29 -33 7 0 19 -7 28 -15 13 -14 15 -13 13 4
-1 12 -6 17 -16 13 -9 -3 -12 -1 -8 5 5 7 0 9 -13 6 -12 -3 -20 0 -20 7 0 8
10 11 29 8 17 -2 28 -1 25 4 -6 10 -58 11 -67 1z"/>
<path d="M1921 664 c0 -11 3 -14 6 -6 3 7 2 16 -1 19 -3 4 -6 -2 -5 -13z"/>
<path d="M120 668 c0 -4 9 -22 20 -40 11 -18 20 -28 20 -23 0 6 -9 24 -20 40
-11 17 -20 27 -20 23z"/>
<path d="M220 659 c-12 -8 -12 -9 5 -7 11 2 20 -2 20 -9 0 -6 3 -14 7 -18 3
-4 5 1 4 12 -2 10 2 21 8 25 7 5 3 8 -9 8 -11 0 -27 -5 -35 -11z"/>
<path d="M1943 641 c-10 -15 -9 -20 2 -24 15 -6 30 22 18 34 -5 5 -14 0 -20
-10z"/>
<path d="M694 628 c3 -13 6 -30 6 -39 0 -9 7 -20 16 -23 12 -5 14 -1 9 17 -6
22 -6 22 9 2 28 -37 38 -46 43 -42 2 3 -1 16 -8 29 -7 12 -13 31 -14 41 -2 22
-22 37 -49 37 -14 0 -17 -5 -12 -22z m36 -8 c0 -5 -2 -10 -4 -10 -3 0 -8 5
-11 10 -3 6 -1 10 4 10 6 0 11 -4 11 -10z"/>
<path d="M320 630 c-8 -5 -12 -11 -10 -14 3 -2 14 2 24 10 22 15 10 19 -14 4z"/>
<path d="M1485 630 c-3 -5 -2 -10 4 -10 5 0 13 5 16 10 3 6 2 10 -4 10 -5 0
-13 -4 -16 -10z"/>
<path d="M370 621 c0 -7 -4 -9 -10 -6 -5 3 -10 1 -10 -4 0 -6 4 -11 9 -11 13
0 25 20 17 27 -3 4 -6 1 -6 -6z"/>
<path d="M1374 623 c-16 -3 -20 -10 -17 -23 3 -11 0 -33 -5 -50 -11 -29 -10
-30 13 -25 14 3 35 7 48 10 13 2 30 16 37 30 25 46 -10 72 -76 58z m52 -27 c6
-17 -12 -56 -26 -56 -6 0 -10 16 -10 35 0 25 4 35 15 35 9 0 18 -6 21 -14z"/>
<path d="M1976 615 c-8 -22 26 -37 42 -19 12 13 9 14 -15 9 -27 -6 -27 -6 -9
9 16 13 17 16 4 16 -9 0 -18 -7 -22 -15z"/>
<path d="M273 614 c4 -4 -1 -16 -10 -27 -18 -20 -18 -20 10 -2 32 20 32 21 10
29 -10 4 -14 4 -10 0z"/>
<path d="M1535 608 c-4 -9 -4 -21 -1 -27 3 -5 0 -12 -6 -14 -8 -4 -9 -6 -2 -6
21 -2 36 26 25 46 -9 17 -10 17 -16 1z"/>
<path d="M1819 603 c-13 -16 -12 -17 4 -4 16 13 21 21 13 21 -2 0 -10 -8 -17
-17z"/>
<path d="M1090 600 c0 -5 9 -10 19 -10 11 0 23 5 26 10 4 6 -5 10 -19 10 -14
0 -26 -4 -26 -10z"/>
<path d="M1485 602 c-5 -4 -11 -19 -12 -34 -2 -37 24 -26 29 13 5 30 1 34 -17
21z"/>
<path d="M1936 586 c30 -24 51 -66 34 -66 -4 0 -10 -7 -13 -14 -4 -10 -1 -13
9 -9 7 3 14 9 14 15 0 5 6 6 13 2 8 -6 8 -3 -2 9 -7 9 -11 23 -8 31 3 8 -10
21 -36 36 l-42 22 31 -26z"/>
<path d="M2085 600 c-3 -5 -1 -10 4 -10 6 0 11 5 11 10 0 6 -2 10 -4 10 -3 0
-8 -4 -11 -10z"/>
<path d="M304 582 c-17 -14 -19 -22 -11 -40 11 -24 24 -27 47 -12 14 9 12 11
-20 14 -8 0 -15 8 -15 16 0 8 5 14 12 13 6 -1 14 4 17 12 7 20 -4 18 -30 -3z"/>
<path d="M797 593 c-22 -21 28 -73 55 -57 9 6 6 10 -12 15 -24 7 -24 7 -2 8
25 1 28 11 10 29 -13 13 -41 16 -51 5z m33 -13 c0 -5 -2 -10 -4 -10 -3 0 -8 5
-11 10 -3 6 -1 10 4 10 6 0 11 -4 11 -10z"/>
<path d="M1850 596 c0 -9 30 -14 35 -6 4 6 -3 10 -14 10 -12 0 -21 -2 -21 -4z"/>
<path d="M880 578 c0 -6 8 -20 17 -30 16 -18 16 -18 -2 -12 -13 5 -16 4 -11
-4 11 -18 56 -15 56 3 0 9 -7 18 -15 21 -8 4 -15 10 -15 15 0 4 7 5 17 2 11
-4 14 -3 9 5 -9 16 -56 16 -56 0z"/>
<path d="M960 576 c0 -3 5 -17 10 -32 8 -20 8 -29 -2 -35 -8 -5 -2 -10 16 -15
16 -4 31 -2 35 3 3 6 15 12 26 14 15 3 20 12 20 34 0 29 -2 30 -52 33 -29 2
-53 1 -53 -2z m72 -31 c0 -5 -5 -11 -11 -13 -6 -2 -11 4 -11 13 0 9 5 15 11
13 6 -2 11 -8 11 -13z"/>
<path d="M1098 572 c-12 -5 -15 -11 -8 -22 5 -9 5 -19 -2 -27 -8 -10 -3 -13
24 -13 33 0 34 1 30 35 -4 35 -12 40 -44 27z"/>
<path d="M1169 577 c0 -1 -1 -17 -2 -35 -2 -29 1 -32 26 -32 24 0 27 3 21 25
-5 21 -3 25 14 23 12 -2 21 1 22 7 0 8 -78 20 -81 12z"/>
<path d="M1740 515 c-35 -36 -60 -65 -54 -65 6 0 29 20 51 44 23 25 42 44 44
43 2 -1 3 0 1 2 -1 2 5 13 15 23 38 43 2 13 -57 -47z"/>
<path d="M186 542 c10 -18 28 -41 38 -50 12 -10 8 0 -9 23 -40 56 -51 66 -29
27z"/>
<path d="M455 558 c4 -9 13 -19 21 -22 8 -3 14 -12 14 -21 0 -8 6 -14 13 -12
6 1 11 -6 10 -17 -1 -13 2 -15 10 -7 8 8 0 22 -31 54 -24 23 -40 34 -37 25z"/>
<path d="M1884 555 c-8 -20 13 -45 38 -45 24 0 34 26 18 45 -16 19 -49 19 -56
0z m27 -4 c7 11 11 11 21 1 10 -10 10 -15 -2 -22 -16 -10 -41 5 -39 24 0 6 3
5 6 -3 5 -11 7 -11 14 0z"/>
<path d="M2057 548 c-14 -20 -18 -21 -26 -8 -12 18 -15 1 -3 -18 8 -12 27 2
46 36 12 21 -1 13 -17 -10z"/>
<path d="M375 550 c-17 -6 -15 -8 13 -12 17 -2 32 -1 32 3 0 12 -24 17 -45 9z"/>
<path d="M1840 541 c-7 -11 -18 -17 -24 -14 -6 3 -8 3 -4 -2 4 -4 2 -15 -5
-24 -6 -9 2 -4 20 9 18 14 32 31 32 38 1 17 -2 15 -19 -7z"/>
<path d="M230 529 c0 -5 5 -7 10 -4 6 3 10 8 10 11 0 2 -4 4 -10 4 -5 0 -10
-5 -10 -11z"/>
<path d="M360 509 c0 -5 5 -7 10 -4 6 3 10 8 10 11 0 2 -4 4 -10 4 -5 0 -10
-5 -10 -11z"/>
<path d="M391 501 c-7 -11 -9 -21 -6 -21 3 0 -5 -10 -16 -21 -17 -17 -23 -19
-30 -8 -7 11 -12 10 -26 -5 -10 -10 -12 -15 -4 -11 11 6 13 4 8 -11 -7 -18 -6
-18 7 -1 8 10 16 13 18 7 2 -6 20 6 40 27 26 26 35 42 29 52 -7 11 -11 9 -20
-8z"/>
<path d="M1850 509 c-12 -8 -8 -15 23 -40 35 -29 36 -32 20 -44 -17 -13 -17
-13 2 -12 12 1 19 -3 17 -11 -1 -8 2 -11 8 -7 7 4 8 11 2 18 -5 7 -8 20 -7 29
2 10 -1 20 -6 24 -5 3 -6 11 -2 17 4 8 1 7 -9 -1 -10 -8 -19 -9 -22 -3 -3 5
-1 11 5 13 7 2 7 8 -3 15 -9 8 -19 9 -28 2z m20 -9 c0 -5 -5 -10 -11 -10 -5 0
-7 5 -4 10 3 6 8 10 11 10 2 0 4 -4 4 -10z"/>
<path d="M299 497 c12 -12 53 -18 46 -6 -3 3 -16 9 -31 12 -18 3 -22 1 -15 -6z"/>
<path d="M1776 496 c3 -7 -2 -21 -11 -30 -15 -14 -15 -16 -1 -16 9 0 16 7 16
16 0 8 5 12 11 8 8 -4 8 0 0 15 -13 23 -23 29 -15 7z"/>
<path d="M450 493 c0 -6 8 -17 18 -24 16 -13 16 -13 2 6 -8 11 -16 22 -17 24
-2 2 -3 0 -3 -6z"/>
<path d="M2007 474 c-10 -13 -14 -24 -10 -24 9 0 36 40 31 45 -2 2 -11 -8 -21
-21z"/>
<path d="M425 470 c-7 -12 2 -30 16 -30 5 0 9 5 9 11 0 5 -5 7 -12 3 -8 -5 -9
-2 -5 9 7 19 2 23 -8 7z"/>
<path d="M541 471 c4 -12 69 -57 69 -48 0 2 -16 17 -36 32 -20 16 -35 23 -33
16z"/>
<path d="M1804 458 c-11 -12 -14 -18 -8 -15 7 4 14 0 18 -8 3 -8 12 -15 20
-15 8 0 20 -8 25 -17 6 -10 11 -13 11 -6 0 6 -9 18 -21 26 -13 10 -17 17 -9
22 6 4 17 1 25 -5 8 -7 15 -10 15 -7 0 3 -13 15 -29 26 l-28 20 -19 -21z m30
-9 c-3 -5 -10 -7 -15 -3 -5 3 -7 10 -3 15 3 5 10 7 15 3 5 -3 7 -10 3 -15z"/>
<path d="M272 428 c35 -45 48 -51 18 -8 -12 16 -19 33 -16 38 2 4 -4 8 -14 8
-16 0 -14 -6 12 -38z"/>
<path d="M395 440 c-7 -12 2 -30 16 -30 12 0 12 27 0 35 -5 3 -12 1 -16 -5z"/>
<path d="M463 425 l-28 -25 32 17 c18 10 33 21 33 26 0 12 -7 8 -37 -18z"/>
<path d="M1590 436 c-30 -29 -178 -95 -260 -116 -65 -17 -115 -23 -215 -23
-126 -1 -128 -1 -60 -10 113 -15 277 10 395 60 90 38 192 102 165 103 -6 0
-17 -6 -25 -14z"/>
<path d="M1635 424 c-16 -14 -51 -37 -76 -52 -38 -22 -45 -30 -38 -47 7 -20 8
-20 8 1 1 27 47 50 67 33 9 -7 14 -8 14 -1 0 6 -5 12 -12 14 -7 3 2 13 20 23
18 11 32 23 32 28 0 5 7 7 14 4 10 -4 13 -1 9 9 -6 17 -2 18 -38 -12z"/>
<path d="M510 431 c0 -5 7 -11 15 -15 9 -3 15 -18 15 -34 0 -16 -7 -35 -15
-42 -8 -7 -15 -18 -15 -24 0 -6 12 2 26 18 14 16 23 34 20 42 -3 8 2 11 14 9
10 -2 21 3 24 11 6 16 -10 19 -19 4 -10 -17 -27 1 -22 22 4 16 3 17 -9 7 -10
-8 -14 -8 -14 0 0 6 -4 11 -10 11 -5 0 -10 -4 -10 -9z"/>
<path d="M1738 433 c6 -2 12 -9 12 -15 0 -6 -7 -7 -16 -4 -11 4 -8 -3 8 -23
29 -37 47 -46 41 -21 -3 11 -10 18 -15 17 -6 -1 -13 4 -16 12 -3 9 0 11 8 6 9
-6 9 -3 1 14 -7 11 -17 21 -24 20 -9 0 -9 -2 1 -6z"/>
<path d="M1966 424 c-5 -14 -4 -15 9 -4 17 14 19 20 6 20 -5 0 -12 -7 -15 -16z"/>
<path d="M629 407 c6 -8 7 -18 3 -22 -4 -5 -1 -5 6 -1 10 6 10 11 1 22 -6 8
-14 14 -16 14 -3 0 0 -6 6 -13z"/>
<path d="M1680 409 c-13 -7 -13 -9 0 -9 13 0 13 -1 0 -10 -8 -5 -12 -11 -9
-15 3 -3 14 3 23 14 19 21 9 35 -14 20z"/>
<path d="M473 398 c-13 -21 -13 -42 0 -50 17 -11 27 -10 27 3 0 5 -4 8 -9 4
-5 -3 -12 -1 -15 4 -8 13 20 21 31 10 6 -6 10 -4 10 5 0 8 -5 12 -10 9 -6 -4
-8 0 -4 10 8 20 -18 24 -30 5z"/>
<path d="M1814 388 c-5 -7 -7 -20 -6 -29 4 -21 -26 -33 -45 -18 -11 10 -17 9
-29 -3 -12 -12 -13 -17 -3 -23 7 -5 10 -4 5 3 -12 20 10 21 42 1 38 -22 56
-25 28 -4 -19 14 -12 21 17 16 10 -1 9 7 -3 29 -7 13 -6 19 5 23 7 3 16 2 19
-4 2 -5 3 -4 2 3 -3 17 -23 21 -32 6z"/>
<path d="M360 380 c0 -5 5 -10 11 -10 5 0 7 5 4 10 -3 6 -8 10 -11 10 -2 0 -4
-4 -4 -10z"/>
<path d="M422 358 c16 -16 26 -33 23 -38 -4 -6 2 -7 11 -3 11 4 15 3 11 -4 -4
-7 -1 -10 8 -9 21 3 31 16 12 16 -21 0 -59 40 -53 56 3 7 -5 12 -18 12 -22 0
-22 -1 6 -30z"/>
<path d="M664 382 c3 -6 1 -12 -6 -14 -7 -3 -5 -7 6 -11 10 -4 15 -3 11 3 -9
15 1 12 35 -8 16 -10 27 -22 23 -26 -4 -4 1 -4 10 0 10 3 17 8 15 9 -13 12
-99 55 -94 47z"/>
<path d="M1930 382 c0 -7 -6 -12 -14 -12 -8 0 -17 -7 -20 -16 -9 -25 -8 -25
21 2 14 13 23 27 20 31 -4 3 -7 1 -7 -5z"/>
<path d="M1650 375 c0 -14 52 -95 62 -95 5 0 6 -5 2 -12 -4 -7 -3 -8 4 -4 7 4
12 2 12 -4 0 -6 5 -8 11 -5 7 5 5 11 -4 18 -8 7 -31 34 -51 60 -20 27 -36 46
-36 42z"/>
<path d="M1700 370 c-11 -7 -11 -10 -2 -10 8 0 10 -5 6 -12 -5 -9 -2 -9 9 1
30 24 19 41 -13 21z"/>
<path d="M608 350 c27 -25 28 -36 5 -49 -10 -5 -15 -13 -11 -16 4 -4 -3 -16
-15 -27 -13 -12 -8 -10 12 4 48 34 50 85 4 102 -14 6 -13 2 5 -14z"/>
<path d="M370 325 c19 -19 36 -35 39 -35 3 0 -10 16 -29 35 -19 19 -36 35 -39
35 -3 0 10 -16 29 -35z"/>
<path d="M1851 344 c0 -11 3 -14 6 -6 3 7 2 16 -1 19 -3 4 -6 -2 -5 -13z"/>
<path d="M567 344 c-11 -12 3 -23 20 -17 12 5 14 3 8 -7 -5 -9 -4 -11 4 -6 9
6 9 11 0 22 -12 15 -22 18 -32 8z"/>
<path d="M1465 326 c-19 -8 -25 -15 -17 -20 7 -4 12 -2 12 4 0 8 10 10 28 6
15 -3 21 -3 14 0 -6 3 -10 10 -6 15 6 11 6 11 -31 -5z"/>
<path d="M1642 314 c11 -23 9 -28 -10 -43 -21 -16 -22 -17 -3 -17 11 0 19 4
18 9 -1 5 4 12 11 14 7 3 11 -1 10 -7 -2 -7 5 -14 14 -15 14 -3 11 6 -14 41
-36 50 -43 55 -26 18z"/>
<path d="M695 320 c-3 -6 1 -7 9 -4 18 7 21 14 7 14 -6 0 -13 -4 -16 -10z"/>
<path d="M1555 314 c-34 -18 -48 -30 -23 -21 10 3 19 0 22 -9 9 -24 8 -26 -13
-19 -11 3 -22 1 -26 -5 -11 -17 0 -22 26 -11 25 9 40 0 52 -29 4 -13 6 -12 6
1 1 8 -10 30 -24 49 l-25 34 27 12 c16 7 24 13 18 13 -5 1 -23 -6 -40 -15z"/>
<path d="M1859 313 c-13 -16 -12 -17 4 -4 9 7 17 15 17 17 0 8 -8 3 -21 -13z"/>
<path d="M650 310 c0 -5 7 -7 15 -4 8 4 15 8 15 10 0 2 -7 4 -15 4 -8 0 -15
-4 -15 -10z"/>
<path d="M545 300 c4 -6 11 -7 17 -4 8 5 9 1 4 -12 -5 -14 -4 -16 5 -7 14 14
4 33 -17 33 -8 0 -12 -5 -9 -10z"/>
<path d="M729 290 c13 -11 28 -20 35 -19 6 0 1 5 -11 11 -13 6 -23 15 -23 20
0 4 -6 8 -12 8 -7 -1 -2 -10 11 -20z"/>
<path d="M1382 295 c-18 -8 -72 -20 -120 -27 -48 -6 -91 -14 -95 -18 -20 -17
178 19 228 41 22 10 36 18 30 18 -5 0 -25 -6 -43 -14z"/>
<path d="M1597 304 c-4 -4 -7 -11 -7 -15 0 -10 24 -5 28 6 4 12 -12 18 -21 9z"/>
<path d="M425 290 c-4 -6 -5 -12 -4 -13 2 -1 18 -13 34 -27 l30 -25 -25 28
c-14 16 -23 31 -22 34 2 2 1 7 -1 9 -3 3 -8 0 -12 -6z"/>
<path d="M807 289 c7 -7 15 -10 18 -7 3 3 -2 9 -12 12 -14 6 -15 5 -6 -5z"/>
<path d="M848 293 c7 -3 16 -2 19 1 4 3 -2 6 -13 5 -11 0 -14 -3 -6 -6z"/>
<path d="M1489 270 c-8 -17 -24 -33 -36 -36 -34 -9 -28 -23 7 -19 17 2 30 0
30 -5 0 -6 -6 -10 -12 -11 -7 0 -3 -5 10 -11 30 -15 28 -24 -8 -37 -38 -13
-38 -18 0 -18 21 0 27 3 18 9 -8 6 -2 7 17 4 21 -5 26 -4 15 3 -19 13 -10 21
27 24 16 1 30 7 30 14 0 8 -7 8 -23 1 -13 -6 -31 -7 -41 -3 -10 5 -22 7 -26 6
-5 -1 -5 3 -2 9 4 7 19 9 35 5 16 -3 31 -2 35 4 3 6 0 9 -8 5 -7 -2 -26 0 -40
5 -29 11 -36 38 -15 59 6 6 9 14 6 17 -3 4 -12 -8 -19 -25z"/>
<path d="M875 279 c-4 -6 -5 -12 -2 -15 2 -3 7 2 10 11 7 17 1 20 -8 4z"/>
<path d="M645 270 c-3 -5 -1 -10 4 -10 6 0 11 5 11 10 0 6 -2 10 -4 10 -3 0
-8 -4 -11 -10z"/>
<path d="M681 264 c1 -10 -2 -30 -6 -44 -4 -16 0 -12 10 9 10 22 12 38 6 44
-7 7 -10 3 -10 -9z"/>
<path d="M908 273 c6 -2 18 -2 25 0 6 3 1 5 -13 5 -14 0 -19 -2 -12 -5z"/>
<path d="M713 263 c4 -3 0 -17 -9 -31 -8 -13 -13 -26 -11 -29 5 -4 37 49 37
62 0 3 -5 5 -12 5 -6 0 -8 -3 -5 -7z"/>
<path d="M783 255 c1 -5 -6 -9 -15 -9 -10 1 -14 -4 -11 -11 3 -10 13 -9 39 7
19 11 34 21 34 21 0 1 -11 2 -24 2 -13 0 -24 -4 -23 -10z"/>
<path d="M950 261 c0 -4 12 -6 28 -4 19 3 23 2 13 -5 -11 -8 -11 -10 0 -14 12
-4 12 -7 0 -22 -12 -14 -12 -16 3 -10 9 3 16 2 16 -4 0 -6 -6 -12 -12 -15 -10
-3 -10 -7 -1 -17 16 -18 26 20 14 54 -9 22 -8 26 8 26 10 0 21 -3 25 -7 12
-13 35 -11 30 2 -7 18 -124 34 -124 16z"/>
<path d="M1430 255 c-14 -8 -20 -14 -14 -15 5 0 19 7 30 15 24 18 16 19 -16 0z"/>
<path d="M1785 249 c-4 -6 -13 -8 -19 -6 -7 3 -13 -1 -13 -8 0 -10 5 -11 18
-4 18 9 35 29 25 29 -3 0 -8 -5 -11 -11z"/>
<path d="M850 230 c11 -11 23 -20 27 -20 3 0 -2 9 -12 20 -10 11 -22 20 -27
20 -4 0 1 -9 12 -20z"/>
<path d="M1130 240 c0 -5 5 -10 11 -10 5 0 7 5 4 10 -3 6 -8 10 -11 10 -2 0
-4 -4 -4 -10z"/>
<path d="M1360 241 c0 -6 -9 -11 -19 -11 -29 0 -53 -51 -31 -65 6 -3 10 -15
10 -25 0 -10 5 -22 11 -26 9 -5 10 1 5 21 -19 76 -19 85 0 85 27 0 49 16 35
24 -6 4 -11 2 -11 -3z"/>
<path d="M900 231 c0 -5 11 -11 23 -15 13 -3 28 -16 34 -28 10 -23 11 -23 9 4
0 14 -4 24 -8 22 -3 -2 -12 1 -20 8 -17 16 -38 21 -38 9z"/>
<path d="M1193 220 c1 -15 8 -20 27 -19 25 0 25 0 3 9 -27 11 -31 22 -5 14 14
-5 15 -4 2 5 -22 16 -29 13 -27 -9z"/>
<path d="M1620 229 c0 -5 5 -7 10 -4 6 3 10 8 10 11 0 2 -4 4 -10 4 -5 0 -10
-5 -10 -11z"/>
<path d="M490 226 c0 -9 54 -38 78 -42 15 -3 24 -3 21 1 -4 3 -17 8 -29 10
-13 2 -30 11 -40 20 -16 14 -30 20 -30 11z"/>
<path d="M730 205 c-7 -14 -20 -25 -29 -26 -12 0 -11 -3 4 -9 19 -7 19 -8 1
-15 -17 -7 -17 -9 -1 -17 9 -6 19 -7 22 -4 4 3 1 6 -7 6 -10 0 -10 3 0 15 7 8
9 15 6 15 -4 0 -1 10 6 23 l12 22 7 -25 c6 -20 7 -21 8 -5 1 37 -14 48 -29 20z"/>
<path d="M790 210 c-6 -12 -9 -28 -6 -36 7 -19 48 -14 53 6 4 12 3 13 -5 1 -6
-8 -17 -11 -26 -8 -14 5 -15 11 -6 27 10 18 14 19 27 8 14 -11 15 -11 11 2 -7
24 -35 23 -48 0z"/>
<path d="M1395 220 c3 -5 8 -10 11 -10 2 0 4 5 4 10 0 6 -5 10 -11 10 -5 0 -7
-4 -4 -10z"/>
<path d="M1717 214 c5 -13 -8 -19 -32 -14 -6 1 -5 -4 1 -10 9 -9 17 -8 33 2
25 15 26 24 7 31 -10 4 -13 1 -9 -9z"/>
<path d="M1157 198 c25 -18 33 -30 33 -54 0 -35 -13 -50 -50 -57 -21 -4 -20
-4 8 -6 17 0 32 3 32 9 0 5 6 7 13 5 9 -4 11 7 9 40 -3 36 -10 49 -32 65 -15
11 -32 20 -36 20 -5 0 6 -10 23 -22z"/>
<path d="M1097 192 c-10 -10 -16 -32 -16 -48 1 -20 3 -23 6 -9 7 35 26 65 36
58 6 -3 7 -1 3 5 -9 15 -10 15 -29 -6z"/>
<path d="M1364 201 c4 -5 0 -12 -6 -14 -8 -3 -6 -6 5 -6 9 -1 17 6 17 14 0 8
-5 15 -11 15 -5 0 -8 -4 -5 -9z"/>
<path d="M1614 190 c0 -13 4 -16 10 -10 7 7 7 13 0 20 -6 6 -10 3 -10 -10z"/>
<path d="M620 189 c-11 -8 -9 -9 10 -3 21 6 23 5 13 -8 -7 -8 -10 -18 -6 -21
3 -4 0 -7 -8 -7 -12 0 -12 -2 0 -9 17 -11 51 4 51 22 0 7 -4 6 -10 -3 -7 -11
-12 -12 -20 -4 -9 9 -9 14 -1 18 15 10 14 26 -1 26 -7 0 -20 -5 -28 -11z"/>
<path d="M860 182 c0 -23 -27 -42 -59 -42 -25 0 -28 -25 -5 -34 14 -5 15 -4 4
9 -10 12 -10 15 4 15 9 0 16 -4 16 -9 0 -5 9 -7 20 -4 10 3 19 8 18 12 -1 3 2
19 7 34 4 15 5 31 1 34 -3 4 -6 -3 -6 -15z"/>
<path d="M894 189 c-4 -8 1 -9 16 -4 17 5 21 4 15 -5 -5 -9 -4 -11 4 -6 6 4 9
12 6 17 -8 12 -32 11 -41 -2z"/>
<path d="M1414 158 c0 -25 4 -44 8 -41 10 5 9 42 -2 68 -5 14 -7 6 -6 -27z"/>
<path d="M1032 167 c-24 -25 -27 -44 -12 -67 8 -11 9 -7 6 15 -6 31 19 70 37
58 6 -3 7 -1 3 5 -9 16 -9 16 -34 -11z"/>
<path d="M1445 180 c3 -5 8 -10 11 -10 2 0 4 5 4 10 0 6 -5 10 -11 10 -5 0 -7
-4 -4 -10z"/>
<path d="M1120 165 c-19 -23 -8 -50 20 -50 19 0 26 6 28 24 5 35 -26 53 -48
26z m34 -4 c9 -14 -4 -41 -20 -41 -12 0 -13 18 -5 48 2 6 20 1 25 -7z"/>
<path d="M1220 169 c0 -5 9 -9 19 -9 11 0 22 4 25 9 3 5 -6 9 -19 9 -14 0 -25
-4 -25 -9z"/>
<path d="M887 153 c-4 -3 -7 -11 -7 -17 0 -6 5 -5 12 2 6 6 9 14 7 17 -3 3 -9
2 -12 -2z"/>
<path d="M948 154 c6 -3 9 -11 5 -17 -4 -7 0 -6 10 1 14 12 16 10 14 -14 -1
-16 4 -28 13 -31 11 -3 12 -2 2 4 -7 5 -11 20 -10 34 2 19 -2 24 -22 26 -14 1
-19 0 -12 -3z"/>
<path d="M1354 137 c1 -27 16 -26 16 0 0 9 3 13 8 9 4 -4 7 -17 7 -29 0 -11 7
-22 15 -24 10 -3 11 -2 4 4 -6 4 -11 19 -10 33 1 18 -5 26 -20 28 -18 3 -22
-2 -20 -21z"/>
<path d="M915 141 c3 -5 -2 -17 -11 -26 -14 -13 -19 -14 -25 -3 -6 9 -9 9 -9
1 0 -18 19 -26 34 -13 11 8 15 8 18 -2 3 -7 5 2 5 20 0 17 -4 32 -9 32 -5 0
-7 -4 -3 -9z"/>
<path d="M1600 140 c0 -6 -12 -8 -27 -5 -27 5 -27 5 -5 -5 18 -7 29 -6 45 5
18 13 19 15 4 15 -9 0 -17 -5 -17 -10z"/>
<path d="M1224 133 c10 -11 36 -12 36 -2 0 5 -10 9 -22 9 -12 0 -18 -3 -14 -7z"/>
<path d="M720 108 c8 -9 26 -19 39 -23 21 -6 22 -5 10 8 -8 8 -18 13 -22 10
-4 -3 -16 1 -25 8 -15 12 -15 11 -2 -3z"/>
<path d="M940 109 c0 -5 5 -7 10 -4 6 3 10 8 10 11 0 2 -4 4 -10 4 -5 0 -10
-5 -10 -11z"/>
<path d="M1524 112 c3 -5 0 -13 -6 -15 -9 -4 -10 -6 -1 -6 17 -1 25 16 12 25
-7 4 -9 3 -5 -4z"/>
<path d="M1086 102 c-3 -5 1 -9 9 -9 8 0 12 4 9 9 -3 4 -7 8 -9 8 -2 0 -6 -4
-9 -8z"/>
<path d="M1460 101 c0 -10 19 -25 25 -20 1 2 -3 10 -11 17 -8 7 -14 8 -14 3z"/>
<path d="M828 63 c6 -2 18 -2 25 0 6 3 1 5 -13 5 -14 0 -19 -2 -12 -5z"/>
<path d="M1258 63 c7 -3 16 -2 19 1 4 3 -2 6 -13 5 -11 0 -14 -3 -6 -6z"/>
<path d="M957 53 c-14 -14 -6 -23 21 -22 23 2 24 2 4 6 -12 2 -20 9 -17 14 7
10 1 12 -8 2z"/>
<path d="M1223 33 c15 -2 39 -2 55 0 15 2 2 4 -28 4 -30 0 -43 -2 -27 -4z"/>
<path d="M1098 23 c7 -3 16 -2 19 1 4 3 -2 6 -13 5 -11 0 -14 -3 -6 -6z"/>
</g>
</svg>
